<svg version="1.1" xmlns="http://www.w3.org/2000/svg" width="153" height="173">
<path d="M0,0 L5,0 L5,21 L4,21 L4,23 L7,23 L7,22 L18,22 L18,23 L20,23 L20,9 L19,9 L19,8 L20,8 L20,1 L19,1 L19,0 L24,0 L24,1 L25,1 L25,2 L27,2 L27,3 L28,3 L28,4 L30,4 L30,5 L32,5 L32,6 L33,6 L33,7 L35,7 L35,8 L36,8 L36,9 L38,9 L38,10 L39,10 L39,11 L41,11 L41,12 L43,12 L43,13 L44,13 L44,14 L46,14 L46,15 L47,15 L47,16 L49,16 L49,17 L51,17 L51,18 L52,18 L52,19 L53,19 L53,20 L55,20 L55,21 L57,21 L57,22 L58,22 L58,23 L60,23 L60,24 L61,24 L61,25 L63,25 L63,26 L64,26 L64,27 L66,27 L66,28 L67,28 L67,29 L68,29 L68,30 L69,30 L69,31 L70,31 L70,32 L71,32 L71,34 L72,34 L72,35 L73,35 L73,37 L74,37 L74,39 L75,39 L75,42 L76,42 L76,108 L75,108 L75,111 L74,111 L74,114 L73,114 L73,115 L72,115 L72,117 L71,117 L71,118 L70,118 L70,120 L69,120 L69,121 L67,121 L67,122 L66,122 L66,123 L65,123 L65,124 L64,124 L64,125 L62,125 L62,124 L61,124 L61,123 L60,123 L60,122 L59,122 L59,121 L58,121 L58,120 L57,120 L57,119 L56,119 L56,118 L55,118 L55,117 L54,117 L54,116 L53,116 L53,115 L52,115 L52,114 L51,114 L51,113 L50,113 L50,112 L49,112 L49,111 L46,111 L46,112 L44,112 L44,113 L43,113 L43,114 L42,114 L42,115 L40,115 L40,116 L38,116 L38,117 L37,117 L37,118 L36,118 L36,120 L37,120 L37,121 L38,121 L38,122 L39,122 L39,123 L40,123 L40,124 L41,124 L41,125 L42,125 L42,126 L43,126 L43,127 L44,127 L44,128 L45,128 L45,129 L46,129 L46,130 L47,130 L47,131 L48,131 L48,132 L49,132 L49,134 L48,134 L48,135 L47,135 L47,136 L45,136 L45,137 L43,137 L43,138 L42,138 L42,139 L40,139 L40,140 L39,140 L39,141 L37,141 L37,142 L36,142 L36,143 L34,143 L34,144 L32,144 L32,145 L31,145 L31,146 L29,146 L29,147 L28,147 L28,148 L26,148 L26,149 L24,149 L24,150 L22,150 L22,151 L20,151 L20,152 L4,152 L4,151 L1,151 L1,150 L0,150 L0,149 L-2,149 L-2,148 L-4,148 L-4,147 L-6,147 L-6,146 L-7,146 L-7,145 L-8,145 L-8,144 L-10,144 L-10,143 L-11,143 L-11,142 L-13,142 L-13,141 L-15,141 L-15,140 L-16,140 L-16,139 L-17,139 L-17,138 L-19,138 L-19,137 L-21,137 L-21,136 L-23,136 L-23,135 L-24,135 L-24,133 L-25,133 L-25,132 L-23,132 L-23,130 L-22,130 L-22,129 L-21,129 L-21,128 L-19,128 L-19,127 L-18,127 L-18,125 L-17,125 L-17,124 L-16,124 L-16,123 L-14,123 L-14,122 L-13,122 L-13,120 L-11,120 L-11,118 L-13,118 L-13,117 L-14,117 L-14,116 L-16,116 L-16,115 L-17,115 L-17,114 L-19,114 L-19,113 L-20,113 L-20,112 L-22,112 L-22,111 L-23,111 L-23,110 L-24,110 L-24,111 L-25,111 L-25,112 L-26,112 L-26,114 L-27,114 L-27,115 L-29,115 L-29,116 L-30,116 L-30,117 L-31,117 L-31,119 L-32,119 L-32,120 L-34,120 L-34,121 L-35,121 L-35,122 L-36,122 L-36,124 L-38,124 L-38,125 L-40,125 L-40,124 L-41,124 L-41,123 L-42,123 L-42,122 L-43,122 L-43,121 L-45,121 L-45,119 L-46,119 L-46,118 L-47,118 L-47,117 L-48,117 L-48,116 L-49,116 L-49,114 L-50,114 L-50,110 L-51,110 L-51,107 L-52,107 L-52,44 L-51,44 L-51,40 L-50,40 L-50,37 L-49,37 L-49,35 L-48,35 L-48,33 L-47,33 L-47,32 L-46,32 L-46,31 L-45,31 L-45,30 L-44,30 L-44,29 L-43,29 L-43,28 L-42,28 L-42,27 L-40,27 L-40,26 L-39,26 L-39,25 L-37,25 L-37,24 L-36,24 L-36,23 L-34,23 L-34,22 L-33,22 L-33,21 L-31,21 L-31,20 L-29,20 L-29,19 L-28,19 L-28,18 L-26,18 L-26,17 L-25,17 L-25,16 L-23,16 L-23,15 L-22,15 L-22,14 L-20,14 L-20,13 L-19,13 L-19,12 L-17,12 L-17,11 L-16,11 L-16,10 L-14,10 L-14,9 L-12,9 L-12,8 L-11,8 L-11,7 L-9,7 L-9,6 L-8,6 L-8,5 L-6,5 L-6,4 L-4,4 L-4,3 L-3,3 L-3,2 L-1,2 L-1,1 L0,1 Z " fill="#DF1FA6" transform="translate(62,9)"/>
<path d="M0,0 L5,0 L5,1 L6,1 L6,2 L8,2 L8,3 L9,3 L9,4 L11,4 L11,5 L13,5 L13,6 L14,6 L14,7 L16,7 L16,8 L17,8 L17,9 L19,9 L19,10 L20,10 L20,11 L22,11 L22,12 L24,12 L24,13 L25,13 L25,14 L27,14 L27,15 L28,15 L28,16 L30,16 L30,17 L32,17 L32,18 L33,18 L33,19 L34,19 L34,20 L36,20 L36,21 L38,21 L38,22 L39,22 L39,23 L41,23 L41,24 L42,24 L42,25 L44,25 L44,26 L45,26 L45,27 L47,27 L47,28 L48,28 L48,29 L49,29 L49,30 L50,30 L50,31 L51,31 L51,32 L52,32 L52,34 L53,34 L53,35 L54,35 L54,37 L55,37 L55,39 L56,39 L56,42 L57,42 L57,108 L56,108 L56,111 L55,111 L55,114 L54,114 L54,115 L53,115 L53,117 L52,117 L52,118 L51,118 L51,120 L50,120 L50,121 L48,121 L48,122 L47,122 L47,123 L46,123 L46,124 L45,124 L45,125 L43,125 L43,124 L42,124 L42,123 L41,123 L41,122 L40,122 L40,121 L39,121 L39,120 L38,120 L38,119 L37,119 L37,118 L36,118 L36,117 L35,117 L35,116 L34,116 L34,115 L33,115 L33,114 L32,114 L32,113 L31,113 L31,112 L30,112 L30,110 L29,110 L29,108 L24,108 L24,106 L23,106 L23,104 L22,104 L22,103 L21,103 L21,102 L20,102 L20,101 L19,101 L19,100 L18,100 L18,99 L17,99 L17,98 L16,98 L16,97 L15,97 L15,96 L14,96 L14,95 L13,95 L13,94 L12,94 L12,93 L11,93 L11,92 L10,92 L10,91 L9,91 L9,89 L8,89 L8,88 L7,88 L7,87 L6,87 L6,86 L5,86 L5,85 L4,85 L4,84 L3,84 L3,83 L1,83 L1,25 L-1,25 L-1,24 L1,24 L1,9 L0,9 L0,8 L1,8 L1,1 L0,1 Z " fill="#478FE0" transform="translate(81,9)"/>
<path d="M0,0 L5,0 L5,21 L4,21 L4,23 L7,23 L7,22 L18,22 L18,23 L20,23 L20,24 L18,24 L18,25 L20,25 L20,83 L22,83 L22,84 L23,84 L23,85 L24,85 L24,86 L25,86 L25,87 L26,87 L26,88 L27,88 L27,89 L28,89 L28,91 L29,91 L29,92 L30,92 L30,93 L31,93 L31,94 L32,94 L32,95 L33,95 L33,96 L34,96 L34,97 L35,97 L35,98 L36,98 L36,99 L37,99 L37,100 L38,100 L38,101 L39,101 L39,102 L40,102 L40,103 L41,103 L41,104 L42,104 L42,106 L43,106 L43,108 L48,108 L48,110 L49,110 L49,111 L46,111 L46,112 L44,112 L44,113 L43,113 L43,114 L42,114 L42,115 L40,115 L40,116 L38,116 L38,117 L37,117 L37,118 L36,118 L36,120 L37,120 L37,121 L38,121 L38,122 L39,122 L39,123 L40,123 L40,124 L41,124 L41,125 L42,125 L42,126 L43,126 L43,127 L44,127 L44,128 L45,128 L45,129 L46,129 L46,130 L47,130 L47,131 L48,131 L48,132 L49,132 L49,134 L48,134 L48,135 L47,135 L47,136 L45,136 L45,137 L43,137 L43,138 L42,138 L42,139 L40,139 L40,140 L39,140 L39,141 L37,141 L37,142 L36,142 L36,143 L34,143 L34,144 L32,144 L32,145 L31,145 L31,146 L29,146 L29,147 L28,147 L28,148 L26,148 L26,149 L24,149 L24,150 L22,150 L22,151 L20,151 L20,152 L4,152 L4,151 L1,151 L1,150 L0,150 L0,149 L-2,149 L-2,148 L-4,148 L-4,147 L-6,147 L-6,146 L-7,146 L-7,145 L-8,145 L-8,144 L-10,144 L-10,143 L-11,143 L-11,142 L-13,142 L-13,141 L-15,141 L-15,140 L-16,140 L-16,139 L-17,139 L-17,138 L-19,138 L-19,137 L-21,137 L-21,136 L-23,136 L-23,135 L-24,135 L-24,133 L-25,133 L-25,132 L-23,132 L-23,130 L-22,130 L-22,129 L-21,129 L-21,128 L-19,128 L-19,127 L-18,127 L-18,125 L-17,125 L-17,124 L-16,124 L-16,123 L-14,123 L-14,122 L-13,122 L-13,120 L-11,120 L-11,118 L-13,118 L-13,117 L-14,117 L-14,116 L-16,116 L-16,115 L-17,115 L-17,114 L-19,114 L-19,113 L-20,113 L-20,112 L-22,112 L-22,111 L-23,111 L-23,110 L-24,110 L-24,109 L-23,109 L-23,108 L-20,108 L-20,107 L-19,107 L-19,105 L-18,105 L-18,103 L-16,103 L-16,102 L-15,102 L-15,101 L-14,101 L-14,99 L-13,99 L-13,98 L-12,98 L-12,97 L-10,97 L-10,96 L-9,96 L-9,95 L-8,95 L-8,94 L-7,94 L-7,93 L-5,93 L-5,92 L-4,92 L-4,89 L-2,89 L-2,88 L-1,88 L-1,87 L0,87 L0,86 L1,86 L1,85 L3,85 L3,84 L4,84 L4,83 L5,83 L5,29 L4,29 L4,28 L3,28 L3,25 L4,25 L4,24 L3,24 L3,20 L2,20 L2,7 L1,7 L1,5 L-2,5 L-2,6 L-4,6 L-4,7 L-5,7 L-5,8 L-8,8 L-8,9 L-9,9 L-9,10 L-10,10 L-10,11 L-11,11 L-11,12 L-12,12 L-12,13 L-15,13 L-15,15 L-16,15 L-16,16 L-20,16 L-20,18 L-24,18 L-24,19 L-28,19 L-28,18 L-26,18 L-26,17 L-25,17 L-25,16 L-23,16 L-23,15 L-22,15 L-22,14 L-20,14 L-20,13 L-19,13 L-19,12 L-17,12 L-17,11 L-16,11 L-16,10 L-14,10 L-14,9 L-12,9 L-12,8 L-11,8 L-11,7 L-9,7 L-9,6 L-8,6 L-8,5 L-6,5 L-6,4 L-4,4 L-4,3 L-3,3 L-3,2 L-1,2 L-1,1 L0,1 Z " fill="#850B7B" transform="translate(62,9)"/>
<path d="M0,0 L1,0 L1,3 L2,3 L2,4 L3,4 L3,58 L2,58 L2,59 L1,59 L1,60 L-1,60 L-1,61 L-2,61 L-2,62 L-3,62 L-3,63 L-4,63 L-4,64 L-6,64 L-6,67 L-7,67 L-7,68 L-9,68 L-9,69 L-10,69 L-10,70 L-11,70 L-11,71 L-12,71 L-12,72 L-14,72 L-14,73 L-15,73 L-15,74 L-16,74 L-16,76 L-17,76 L-17,77 L-18,77 L-18,78 L-20,78 L-20,80 L-21,80 L-21,82 L-22,82 L-22,83 L-25,83 L-25,84 L-28,84 L-28,83 L-29,83 L-29,82 L-30,82 L-30,80 L-31,80 L-31,79 L-33,79 L-33,78 L-34,78 L-34,27 L-33,27 L-33,24 L-32,24 L-32,22 L-30,22 L-30,20 L-29,20 L-29,19 L-27,19 L-27,17 L-25,17 L-25,16 L-24,16 L-24,15 L-22,15 L-22,14 L-21,14 L-21,13 L-19,13 L-19,12 L-18,12 L-18,11 L-16,11 L-16,10 L-14,10 L-14,9 L-13,9 L-13,8 L-12,8 L-12,7 L-9,7 L-9,6 L-8,6 L-8,5 L-6,5 L-6,4 L-5,4 L-5,3 L-4,3 L-4,2 L-2,2 L-2,1 L0,1 Z " fill="#DE0487" transform="translate(64,34)"/>
<path d="M0,0 L2,0 L2,25 L4,25 L4,26 L6,26 L6,27 L7,27 L7,29 L10,29 L10,30 L11,30 L11,31 L12,31 L12,32 L15,32 L15,33 L16,33 L16,34 L18,34 L18,35 L19,35 L19,36 L21,36 L21,37 L23,37 L23,38 L24,38 L24,39 L26,39 L26,40 L28,40 L28,41 L29,41 L29,42 L30,42 L30,43 L31,43 L31,44 L32,44 L32,45 L33,45 L33,47 L35,47 L35,49 L36,49 L36,50 L37,50 L37,99 L36,99 L36,103 L35,103 L35,104 L34,104 L34,106 L33,106 L33,108 L31,108 L31,109 L29,109 L29,108 L24,108 L24,106 L23,106 L23,104 L22,104 L22,103 L21,103 L21,102 L20,102 L20,101 L19,101 L19,100 L18,100 L18,99 L17,99 L17,98 L16,98 L16,97 L15,97 L15,96 L14,96 L14,95 L13,95 L13,94 L12,94 L12,93 L11,93 L11,92 L10,92 L10,91 L9,91 L9,89 L8,89 L8,88 L7,88 L7,87 L6,87 L6,86 L5,86 L5,85 L4,85 L4,84 L3,84 L3,83 L1,83 L1,25 L-1,25 L-1,24 L1,24 L1,9 L0,9 L0,8 L1,8 L1,1 L0,1 Z " fill="#2C50DC" transform="translate(81,9)"/>
<path d="M0,0 L2,0 L2,1 L3,1 L3,2 L4,2 L4,3 L5,3 L5,4 L6,4 L6,5 L7,5 L7,6 L8,6 L8,7 L9,7 L9,8 L10,8 L10,9 L12,9 L12,11 L13,11 L13,12 L14,12 L14,13 L15,13 L15,14 L16,14 L16,16 L18,16 L18,17 L19,17 L19,18 L20,18 L20,19 L21,19 L21,20 L22,20 L22,21 L23,21 L23,22 L24,22 L24,24 L27,24 L27,25 L28,25 L28,26 L29,26 L29,27 L30,27 L30,28 L31,28 L31,29 L32,29 L32,30 L33,30 L33,31 L34,31 L34,32 L35,32 L35,33 L36,33 L36,34 L37,34 L37,35 L38,35 L38,37 L37,37 L37,38 L36,38 L36,39 L34,39 L34,40 L32,40 L32,41 L31,41 L31,42 L29,42 L29,43 L28,43 L28,44 L26,44 L26,45 L25,45 L25,46 L23,46 L23,47 L21,47 L21,48 L20,48 L20,49 L18,49 L18,50 L17,50 L17,51 L15,51 L15,52 L13,52 L13,53 L11,53 L11,54 L9,54 L9,55 L-7,55 L-7,54 L-10,54 L-10,53 L-11,53 L-11,52 L-13,52 L-13,51 L-15,51 L-15,50 L-17,50 L-17,49 L-18,49 L-18,48 L-19,48 L-19,47 L-21,47 L-21,46 L-22,46 L-22,45 L-24,45 L-24,44 L-26,44 L-26,43 L-27,43 L-27,42 L-28,42 L-28,41 L-30,41 L-30,40 L-32,40 L-32,39 L-34,39 L-34,38 L-35,38 L-35,36 L-36,36 L-36,35 L-34,35 L-34,33 L-33,33 L-33,32 L-32,32 L-32,31 L-30,31 L-30,30 L-29,30 L-29,28 L-28,28 L-28,27 L-27,27 L-27,26 L-25,26 L-25,25 L-24,25 L-24,23 L-21,23 L-21,21 L-19,21 L-19,19 L-17,19 L-17,17 L-16,17 L-16,16 L-15,16 L-15,15 L-14,15 L-14,14 L-13,14 L-13,13 L-12,13 L-12,12 L-11,12 L-11,11 L-10,11 L-10,10 L-9,10 L-9,9 L-8,9 L-8,8 L-7,8 L-7,7 L-6,7 L-6,5 L-4,5 L-4,4 L-3,4 L-3,3 L-2,3 L-2,2 L-1,2 L-1,1 L0,1 Z " fill="#EAC83F" transform="translate(73,106)"/>
<path d="M0,0 L3,0 L3,1 L4,1 L4,2 L6,2 L6,3 L7,3 L7,4 L9,4 L9,5 L11,5 L11,6 L12,6 L12,7 L14,7 L14,8 L15,8 L15,9 L17,9 L17,10 L18,10 L18,11 L20,11 L20,12 L22,12 L22,13 L23,13 L23,14 L25,14 L25,15 L26,15 L26,16 L28,16 L28,17 L30,17 L30,18 L31,18 L31,19 L32,19 L32,20 L34,20 L34,21 L36,21 L36,22 L37,22 L37,23 L39,23 L39,24 L40,24 L40,25 L42,25 L42,26 L43,26 L43,27 L45,27 L45,28 L46,28 L46,29 L47,29 L47,30 L48,30 L48,31 L49,31 L49,32 L50,32 L50,34 L51,34 L51,35 L52,35 L52,37 L53,37 L53,39 L54,39 L54,42 L55,42 L55,108 L54,108 L54,111 L53,111 L53,114 L52,114 L52,115 L51,115 L51,117 L50,117 L50,118 L49,118 L49,120 L48,120 L48,121 L46,121 L46,122 L45,122 L45,123 L44,123 L44,124 L43,124 L43,125 L41,125 L41,124 L40,124 L40,123 L39,123 L39,122 L38,122 L38,121 L37,121 L37,120 L36,120 L36,119 L35,119 L35,118 L34,118 L34,117 L33,117 L33,116 L32,116 L32,115 L31,115 L31,114 L30,114 L30,113 L29,113 L29,112 L31,112 L31,111 L32,111 L32,112 L33,112 L33,114 L34,114 L34,115 L36,115 L36,116 L37,116 L37,118 L38,118 L38,119 L40,119 L40,120 L44,120 L44,119 L46,119 L46,118 L47,118 L47,116 L46,116 L46,113 L47,113 L47,110 L46,110 L46,111 L45,111 L45,109 L46,109 L46,107 L47,107 L47,106 L52,106 L52,45 L51,45 L51,42 L49,42 L49,38 L48,38 L48,35 L47,35 L47,32 L45,32 L45,31 L39,31 L39,33 L37,33 L37,34 L36,34 L36,35 L38,35 L38,36 L37,36 L37,37 L36,37 L36,38 L38,38 L38,39 L37,39 L37,41 L36,41 L36,40 L35,40 L35,38 L33,38 L33,37 L31,37 L31,38 L32,38 L32,40 L34,40 L34,41 L35,41 L35,43 L34,43 L34,42 L32,42 L32,41 L31,41 L31,40 L30,40 L30,39 L28,39 L28,41 L30,41 L30,42 L31,42 L31,43 L28,43 L28,42 L27,42 L27,41 L26,41 L26,40 L24,40 L24,39 L22,39 L22,38 L21,38 L21,37 L19,37 L19,36 L17,36 L17,35 L16,35 L16,34 L14,34 L14,33 L13,33 L13,32 L10,32 L10,31 L9,31 L9,30 L8,30 L8,29 L5,29 L5,27 L4,27 L4,26 L2,26 L2,25 L0,25 Z M46,38 L48,38 L48,40 L47,40 L47,39 L46,39 Z " fill="#4892E2" transform="translate(83,9)"/>
<path d="M0,0 L2,0 L2,1 L3,1 L3,2 L4,2 L4,3 L5,3 L5,4 L6,4 L6,5 L7,5 L7,6 L8,6 L8,7 L9,7 L9,8 L10,8 L10,9 L12,9 L12,11 L13,11 L13,12 L14,12 L14,13 L15,13 L15,14 L16,14 L16,16 L18,16 L18,17 L19,17 L19,18 L20,18 L20,19 L21,19 L21,20 L22,20 L22,21 L23,21 L23,22 L21,22 L21,23 L19,23 L19,24 L18,24 L18,25 L17,25 L17,26 L15,26 L15,27 L14,27 L14,28 L12,28 L12,29 L11,29 L11,30 L7,30 L7,31 L4,31 L4,32 L-1,32 L-1,31 L-6,31 L-6,30 L-9,30 L-9,29 L-10,29 L-10,27 L-14,27 L-14,25 L-16,25 L-16,24 L-19,24 L-19,22 L-21,22 L-21,21 L-19,21 L-19,19 L-17,19 L-17,17 L-16,17 L-16,16 L-15,16 L-15,15 L-14,15 L-14,14 L-13,14 L-13,13 L-12,13 L-12,12 L-11,12 L-11,11 L-10,11 L-10,10 L-9,10 L-9,9 L-8,9 L-8,8 L-7,8 L-7,7 L-6,7 L-6,5 L-4,5 L-4,4 L-3,4 L-3,3 L-2,3 L-2,2 L-1,2 L-1,1 L0,1 Z " fill="#F69224" transform="translate(73,106)"/>
<path d="M0,0 L1,0 L1,1 L2,1 L2,2 L4,2 L4,3 L5,3 L5,4 L7,4 L7,5 L8,5 L8,6 L10,6 L10,7 L11,7 L11,8 L12,8 L12,9 L13,9 L13,10 L14,10 L14,11 L15,11 L15,13 L16,13 L16,14 L17,14 L17,16 L18,16 L18,18 L19,18 L19,21 L20,21 L20,87 L19,87 L19,90 L18,90 L18,93 L17,93 L17,94 L16,94 L16,96 L15,96 L15,97 L14,97 L14,99 L13,99 L13,100 L11,100 L11,101 L10,101 L10,102 L9,102 L9,103 L8,103 L8,104 L6,104 L6,103 L5,103 L5,102 L4,102 L4,101 L3,101 L3,100 L2,100 L2,99 L1,99 L1,98 L0,98 L0,97 L-1,97 L-1,96 L-2,96 L-2,95 L-3,95 L-3,94 L-4,94 L-4,93 L-5,93 L-5,92 L-6,92 L-6,91 L-4,91 L-4,90 L-3,90 L-3,91 L-2,91 L-2,93 L-1,93 L-1,94 L1,94 L1,95 L2,95 L2,97 L3,97 L3,98 L5,98 L5,99 L9,99 L9,98 L11,98 L11,97 L12,97 L12,95 L11,95 L11,92 L12,92 L12,89 L11,89 L11,90 L10,90 L10,88 L11,88 L11,86 L12,86 L12,85 L17,85 L17,24 L16,24 L16,21 L14,21 L14,17 L13,17 L13,14 L12,14 L12,11 L10,11 L10,10 L4,10 L4,12 L2,12 L2,11 L1,11 L1,9 L-1,9 L-1,8 L0,8 L0,7 L1,7 L1,6 L0,6 L0,5 L-2,5 L-2,6 L-1,6 L-1,7 L-3,7 L-3,5 L-5,5 L-5,4 L-4,4 L-4,3 L-2,3 L-2,4 L0,4 L0,3 L1,3 L1,2 L0,2 Z M11,17 L13,17 L13,19 L12,19 L12,18 L11,18 Z " fill="#5B8BBF" transform="translate(118,30)"/>
<path d="M0,0 L1,0 L1,1 L3,1 L3,2 L2,2 L2,4 L1,4 L1,5 L-3,5 L-3,7 L-4,7 L-4,8 L-6,8 L-6,10 L-7,10 L-7,11 L-8,11 L-8,12 L-9,12 L-9,14 L-7,14 L-7,15 L-11,15 L-11,16 L-12,16 L-12,17 L-13,17 L-13,18 L-15,18 L-15,21 L-16,21 L-16,17 L-17,17 L-17,24 L-18,24 L-18,25 L-20,25 L-20,26 L-21,26 L-21,84 L-20,84 L-20,91 L-19,91 L-19,92 L-18,92 L-18,94 L-17,94 L-17,96 L-15,96 L-15,98 L-14,98 L-14,99 L-13,99 L-13,100 L-12,100 L-12,101 L-7,101 L-7,100 L-6,100 L-6,98 L-7,98 L-7,96 L-9,96 L-9,95 L-10,95 L-10,94 L-9,94 L-9,93 L-7,93 L-7,95 L-5,95 L-5,96 L-6,96 L-6,97 L-5,97 L-5,98 L-4,98 L-4,95 L-1,95 L-1,93 L2,93 L2,92 L4,92 L4,93 L3,93 L3,95 L2,95 L2,96 L0,96 L0,97 L-1,97 L-1,98 L-2,98 L-2,100 L-3,100 L-3,101 L-5,101 L-5,102 L-6,102 L-6,103 L-7,103 L-7,105 L-9,105 L-9,106 L-11,106 L-11,105 L-12,105 L-12,104 L-13,104 L-13,103 L-14,103 L-14,102 L-16,102 L-16,100 L-17,100 L-17,99 L-18,99 L-18,98 L-19,98 L-19,97 L-20,97 L-20,95 L-21,95 L-21,91 L-22,91 L-22,88 L-23,88 L-23,25 L-22,25 L-22,21 L-21,21 L-21,18 L-20,18 L-20,16 L-19,16 L-19,14 L-18,14 L-18,13 L-17,13 L-17,12 L-16,12 L-16,11 L-15,11 L-15,10 L-14,10 L-14,9 L-13,9 L-13,8 L-11,8 L-11,7 L-10,7 L-10,6 L-8,6 L-8,5 L-7,5 L-7,4 L-5,4 L-5,3 L-4,3 L-4,2 L-2,2 L-2,1 L0,1 Z " fill="#6F255A" transform="translate(33,28)"/>
<path d="M0,0 L2,0 L2,1 L3,1 L3,2 L5,2 L5,3 L6,3 L6,4 L8,4 L8,5 L10,5 L10,6 L11,6 L11,7 L13,7 L13,8 L14,8 L14,9 L16,9 L16,10 L17,10 L17,11 L19,11 L19,12 L21,12 L21,13 L22,13 L22,14 L24,14 L24,15 L25,15 L25,16 L27,16 L27,17 L29,17 L29,18 L30,18 L30,19 L31,19 L31,20 L33,20 L33,23 L31,23 L31,22 L30,22 L30,23 L29,23 L29,24 L28,24 L28,25 L27,25 L27,24 L25,24 L25,23 L24,23 L24,22 L25,22 L25,21 L22,21 L22,20 L21,20 L21,21 L20,21 L20,20 L19,20 L19,18 L18,18 L18,20 L16,20 L16,19 L14,19 L14,21 L12,21 L12,20 L9,20 L9,18 L7,18 L7,20 L4,20 L4,21 L1,21 L1,20 L0,20 L0,7 L1,7 L1,6 L0,6 Z " fill="#498FD8" transform="translate(84,9)"/>
<path d="M0,0 L1,0 L1,2 L0,2 L0,4 L-1,4 L-1,6 L-3,6 L-3,7 L-4,7 L-4,8 L-3,8 L-3,9 L-6,9 L-6,10 L-7,10 L-7,11 L-9,11 L-9,14 L-10,14 L-10,15 L-9,15 L-9,16 L-8,16 L-8,17 L-6,17 L-6,18 L-4,18 L-4,19 L-3,19 L-3,20 L-2,20 L-2,21 L-1,21 L-1,22 L1,22 L1,21 L0,21 L0,20 L-1,20 L-1,19 L2,19 L2,20 L3,20 L3,22 L4,22 L4,23 L5,23 L5,22 L7,22 L7,24 L8,24 L8,25 L9,25 L9,24 L11,24 L11,25 L12,25 L12,27 L17,27 L17,26 L20,26 L20,27 L18,27 L18,30 L29,30 L29,29 L30,29 L30,28 L35,28 L35,27 L36,27 L36,26 L40,26 L40,24 L44,24 L44,25 L42,25 L42,26 L41,26 L41,27 L39,27 L39,28 L38,28 L38,29 L36,29 L36,30 L34,30 L34,31 L32,31 L32,32 L30,32 L30,33 L14,33 L14,32 L11,32 L11,31 L10,31 L10,30 L8,30 L8,29 L6,29 L6,28 L4,28 L4,27 L3,27 L3,26 L2,26 L2,25 L0,25 L0,24 L-1,24 L-1,23 L-3,23 L-3,22 L-5,22 L-5,21 L-6,21 L-6,20 L-7,20 L-7,19 L-9,19 L-9,18 L-11,18 L-11,17 L-13,17 L-13,16 L-14,16 L-14,14 L-15,14 L-15,13 L-13,13 L-13,11 L-12,11 L-12,10 L-11,10 L-11,9 L-9,9 L-9,8 L-8,8 L-8,6 L-7,6 L-7,5 L-6,5 L-6,4 L-4,4 L-4,3 L-3,3 L-3,1 L0,1 Z " fill="#DDBF49" transform="translate(52,128)"/>
<path d="M0,0 L1,0 L1,2 L4,2 L4,3 L6,3 L6,5 L10,5 L10,7 L11,7 L11,8 L14,8 L14,9 L19,9 L19,10 L24,10 L24,9 L27,9 L27,8 L31,8 L31,7 L32,7 L32,6 L34,6 L34,5 L35,5 L35,4 L37,4 L37,3 L38,3 L38,2 L39,2 L39,1 L41,1 L41,0 L44,0 L44,2 L46,2 L46,5 L44,5 L44,4 L43,4 L43,6 L44,6 L44,7 L43,7 L43,8 L42,8 L42,6 L38,6 L38,7 L39,7 L39,8 L37,8 L37,7 L35,7 L35,11 L34,11 L34,12 L33,12 L33,13 L32,13 L32,14 L31,14 L31,16 L30,16 L30,15 L29,15 L29,14 L27,14 L27,15 L26,15 L26,14 L25,14 L25,13 L21,13 L21,12 L20,12 L20,13 L19,13 L19,12 L15,12 L15,13 L14,13 L14,14 L19,14 L19,15 L17,15 L17,16 L9,16 L9,12 L13,12 L13,11 L11,11 L11,10 L9,10 L9,8 L7,8 L7,9 L5,9 L5,10 L3,10 L3,11 L0,11 L0,10 L-7,10 L-7,9 L-4,9 L-4,8 L-5,8 L-5,7 L-4,7 L-4,6 L-2,6 L-2,4 L-1,4 L-1,2 L0,2 Z " fill="#F4CB45" transform="translate(53,128)"/>
<path d="M0,0 L1,0 L1,45 L2,45 L2,49 L3,49 L3,50 L5,50 L5,51 L6,51 L6,53 L7,53 L7,54 L8,54 L8,55 L10,55 L10,57 L7,57 L7,58 L4,58 L4,60 L1,60 L1,63 L0,63 L0,62 L-1,62 L-1,61 L0,61 L0,60 L-2,60 L-2,58 L-3,58 L-3,57 L-5,57 L-5,55 L-6,55 L-6,56 L-7,56 L-7,55 L-8,55 L-8,54 L-9,54 L-9,55 L-10,55 L-10,56 L-11,56 L-11,53 L-10,53 L-10,51 L-9,51 L-9,50 L-8,50 L-8,49 L-7,49 L-7,48 L-6,48 L-6,49 L-5,49 L-5,48 L-4,48 L-4,46 L-2,46 L-2,43 L-1,43 L-1,2 L0,2 Z " fill="#E623AE" transform="translate(28,63)"/>
<path d="M0,0 L2,0 L2,2 L4,2 L4,3 L6,3 L6,4 L2,4 L2,8 L1,8 L1,10 L2,10 L2,11 L4,11 L4,16 L1,16 L1,17 L0,17 L0,16 L-1,16 L-1,14 L-3,14 L-3,15 L-4,15 L-4,14 L-5,14 L-5,12 L-6,12 L-6,11 L-9,11 L-9,12 L-8,12 L-8,13 L-7,13 L-7,14 L-9,14 L-9,13 L-10,13 L-10,12 L-11,12 L-11,11 L-12,11 L-12,10 L-14,10 L-14,9 L-16,9 L-16,8 L-17,8 L-17,7 L-18,7 L-18,6 L-17,6 L-17,3 L-15,3 L-15,2 L-7,2 L-7,3 L-4,3 L-4,2 L-2,2 L-2,1 L0,1 Z " fill="#E7C73F" transform="translate(60,136)"/>
<path d="M0,0 L2,0 L2,30 L3,30 L3,82 L5,82 L5,83 L6,83 L6,84 L7,84 L7,86 L8,86 L8,87 L10,87 L10,90 L12,90 L12,91 L13,91 L13,93 L14,93 L14,94 L15,94 L15,95 L18,95 L18,97 L19,97 L19,99 L20,99 L20,100 L21,100 L21,101 L22,101 L22,102 L23,102 L23,103 L24,103 L24,105 L25,105 L25,106 L26,106 L26,107 L27,107 L27,108 L24,108 L24,106 L23,106 L23,104 L22,104 L22,103 L21,103 L21,102 L20,102 L20,101 L19,101 L19,100 L18,100 L18,99 L17,99 L17,98 L16,98 L16,97 L15,97 L15,96 L14,96 L14,95 L13,95 L13,94 L12,94 L12,93 L11,93 L11,92 L10,92 L10,91 L9,91 L9,89 L8,89 L8,88 L7,88 L7,87 L6,87 L6,86 L5,86 L5,85 L4,85 L4,84 L3,84 L3,83 L1,83 L1,25 L-1,25 L-1,24 L1,24 L1,9 L0,9 L0,8 L1,8 L1,1 L0,1 Z " fill="#5046BA" transform="translate(81,9)"/>
<path d="M0,0 L3,0 L3,1 L4,1 L4,3 L7,3 L7,4 L8,4 L8,5 L9,5 L9,6 L12,6 L12,7 L13,7 L13,8 L15,8 L15,9 L16,9 L16,10 L18,10 L18,11 L20,11 L20,12 L21,12 L21,13 L23,13 L23,14 L25,14 L25,15 L26,15 L26,16 L27,16 L27,17 L28,17 L28,18 L29,18 L29,19 L30,19 L30,21 L32,21 L32,23 L33,23 L33,24 L34,24 L34,73 L33,73 L33,76 L31,76 L31,74 L32,74 L32,70 L33,70 L33,29 L32,29 L32,26 L31,26 L31,24 L30,24 L30,23 L28,23 L28,21 L26,21 L26,19 L25,19 L25,17 L21,17 L21,18 L20,18 L20,16 L21,16 L21,15 L20,15 L20,14 L18,14 L18,13 L17,13 L17,12 L16,12 L16,11 L13,11 L13,10 L12,10 L12,9 L11,9 L11,8 L8,8 L8,10 L6,10 L6,11 L5,11 L5,12 L4,12 L4,9 L1,9 L1,6 L3,6 L3,5 L2,5 L2,4 L1,4 L1,1 L0,1 Z " fill="#1F51C6" transform="translate(84,35)"/>
<path d="M0,0 L1,0 L1,1 L2,1 L2,2 L3,2 L3,3 L4,3 L4,4 L5,4 L5,5 L6,5 L6,6 L7,6 L7,7 L8,7 L8,8 L9,8 L9,9 L10,9 L10,10 L11,10 L11,11 L12,11 L12,13 L13,13 L13,15 L18,15 L18,17 L19,17 L19,18 L16,18 L16,19 L14,19 L14,20 L13,20 L13,21 L12,21 L12,22 L10,22 L10,23 L8,23 L8,24 L7,24 L7,25 L6,25 L6,27 L7,27 L7,28 L5,28 L5,26 L4,26 L4,25 L3,25 L3,24 L2,24 L2,23 L1,23 L1,22 L0,22 L0,21 L-1,21 L-1,20 L1,20 L1,21 L4,21 L4,20 L5,20 L5,18 L4,18 L4,17 L3,17 L3,16 L2,16 L2,17 L-1,17 L-1,15 L1,15 L1,14 L3,14 L3,12 L4,12 L4,13 L5,13 L5,11 L4,11 L4,8 L6,8 L6,7 L5,7 L5,6 L4,6 L4,5 L3,5 L3,4 L1,4 L1,3 L0,3 Z " fill="#810F88" transform="translate(92,102)"/>
<path d="M0,0 L11,0 L11,1 L13,1 L13,2 L11,2 L11,3 L13,3 L13,61 L15,61 L15,62 L16,62 L16,63 L17,63 L17,64 L18,64 L18,65 L19,65 L19,66 L20,66 L20,67 L21,67 L21,69 L22,69 L22,70 L23,70 L23,71 L20,71 L20,70 L19,70 L19,69 L16,69 L16,66 L15,66 L15,65 L14,65 L14,63 L13,63 L13,62 L11,62 L11,4 L7,4 L7,2 L10,2 L10,1 L1,1 L1,3 L2,3 L2,2 L6,2 L6,3 L3,3 L3,4 L0,4 L0,2 L-2,2 L-2,1 L0,1 Z " fill="#57157D" transform="translate(69,31)"/>
<path d="M0,0 L5,0 L5,21 L4,21 L4,24 L3,24 L3,20 L2,20 L2,7 L1,7 L1,5 L-2,5 L-2,6 L-4,6 L-4,7 L-5,7 L-5,8 L-8,8 L-8,9 L-9,9 L-9,10 L-10,10 L-10,11 L-11,11 L-11,12 L-12,12 L-12,13 L-15,13 L-15,15 L-16,15 L-16,16 L-20,16 L-20,18 L-24,18 L-24,19 L-28,19 L-28,18 L-26,18 L-26,17 L-25,17 L-25,16 L-23,16 L-23,15 L-22,15 L-22,14 L-20,14 L-20,13 L-19,13 L-19,12 L-17,12 L-17,11 L-16,11 L-16,10 L-14,10 L-14,9 L-12,9 L-12,8 L-11,8 L-11,7 L-9,7 L-9,6 L-8,6 L-8,5 L-6,5 L-6,4 L-4,4 L-4,3 L-3,3 L-3,2 L-1,2 L-1,1 L0,1 Z " fill="#A43682" transform="translate(62,9)"/>
<path d="M0,0 L1,0 L1,1 L3,1 L3,2 L2,2 L2,4 L1,4 L1,5 L-3,5 L-3,7 L-4,7 L-4,8 L-6,8 L-6,10 L-7,10 L-7,11 L-8,11 L-8,12 L-9,12 L-9,14 L-7,14 L-7,15 L-11,15 L-11,16 L-12,16 L-12,17 L-13,17 L-13,18 L-15,18 L-15,21 L-16,21 L-16,17 L-17,17 L-17,24 L-18,24 L-18,25 L-20,25 L-20,26 L-21,26 L-21,24 L-20,24 L-20,22 L-19,22 L-19,19 L-21,19 L-21,18 L-20,18 L-20,16 L-19,16 L-19,14 L-18,14 L-18,13 L-17,13 L-17,12 L-16,12 L-16,11 L-15,11 L-15,10 L-14,10 L-14,9 L-13,9 L-13,8 L-11,8 L-11,7 L-10,7 L-10,6 L-8,6 L-8,5 L-7,5 L-7,4 L-5,4 L-5,3 L-4,3 L-4,2 L-2,2 L-2,1 L0,1 Z " fill="#C62493" transform="translate(33,28)"/>
<path d="M0,0 L9,0 L9,1 L6,1 L6,3 L10,3 L10,60 L9,60 L9,13 L8,13 L8,14 L4,14 L4,8 L3,8 L3,6 L1,6 L1,7 L0,7 L0,6 L-1,6 L-1,5 L-2,5 L-2,4 L-3,4 L-3,2 L-2,2 L-2,1 L-1,1 L-1,3 L2,3 L2,2 L5,2 L5,1 L1,1 L1,2 L0,2 Z " fill="#7F147E" transform="translate(70,32)"/>
<path d="M0,0 L2,0 L2,1 L3,1 L3,2 L4,2 L4,3 L5,3 L5,4 L6,4 L6,5 L7,5 L7,6 L8,6 L8,7 L9,7 L9,8 L10,8 L10,9 L12,9 L12,11 L13,11 L13,12 L14,12 L14,13 L15,13 L15,14 L16,14 L16,16 L14,16 L14,15 L13,15 L13,14 L12,14 L12,13 L11,13 L11,12 L10,12 L10,11 L9,11 L9,10 L8,10 L8,8 L4,8 L4,6 L3,6 L3,4 L2,4 L2,3 L1,3 L1,5 L2,5 L2,7 L1,7 L1,6 L0,6 L0,5 L-2,5 L-2,8 L-3,8 L-3,9 L-4,9 L-4,10 L-6,10 L-6,11 L-7,11 L-7,12 L-9,12 L-9,15 L-8,15 L-8,18 L-9,18 L-9,16 L-12,16 L-12,18 L-13,18 L-13,20 L-14,20 L-14,19 L-15,19 L-15,20 L-16,20 L-16,21 L-18,21 L-18,23 L-19,23 L-19,22 L-21,22 L-21,21 L-19,21 L-19,19 L-17,19 L-17,17 L-16,17 L-16,16 L-15,16 L-15,15 L-14,15 L-14,14 L-13,14 L-13,13 L-12,13 L-12,12 L-11,12 L-11,11 L-10,11 L-10,10 L-9,10 L-9,9 L-8,9 L-8,8 L-7,8 L-7,7 L-6,7 L-6,5 L-4,5 L-4,4 L-3,4 L-3,3 L-2,3 L-2,2 L-1,2 L-1,1 L0,1 Z " fill="#F69053" transform="translate(73,106)"/>
<path d="M0,0 L1,0 L1,3 L2,3 L2,4 L3,4 L3,58 L2,58 L2,59 L1,59 L1,60 L-1,60 L-1,61 L-2,61 L-2,59 L0,59 L0,58 L1,58 L1,6 L0,6 L0,2 L-1,2 L-1,3 L-3,3 L-3,4 L-5,4 L-5,3 L-4,3 L-4,2 L-2,2 L-2,1 L0,1 Z " fill="#C30887" transform="translate(64,34)"/>
<path d="M0,0 L1,0 L1,4 L3,4 L3,7 L4,7 L4,58 L2,58 L2,51 L3,51 L3,49 L2,49 L2,37 L0,37 L0,36 L1,36 L1,35 L2,35 L2,33 L3,33 L3,24 L2,24 L2,22 L-1,22 L-1,18 L1,18 L1,17 L2,17 L2,9 L3,9 L3,8 L0,8 L0,6 L-1,6 L-1,2 L0,2 Z M-1,8 L0,8 L0,9 L-1,9 Z " fill="#448DD5" transform="translate(131,47)"/>
<path d="M0,0 L1,0 L1,7 L2,7 L2,8 L3,8 L3,10 L4,10 L4,12 L6,12 L6,14 L7,14 L7,15 L8,15 L8,16 L9,16 L9,17 L14,17 L14,16 L15,16 L15,14 L14,14 L14,12 L12,12 L12,11 L11,11 L11,10 L12,10 L12,9 L14,9 L14,11 L16,11 L16,12 L15,12 L15,13 L16,13 L16,14 L17,14 L17,11 L20,11 L20,9 L23,9 L23,8 L25,8 L25,9 L24,9 L24,11 L23,11 L23,12 L21,12 L21,13 L20,13 L20,14 L19,14 L19,16 L18,16 L18,17 L16,17 L16,18 L15,18 L15,19 L14,19 L14,21 L12,21 L12,22 L10,22 L10,21 L9,21 L9,20 L8,20 L8,19 L7,19 L7,18 L5,18 L5,16 L4,16 L4,15 L3,15 L3,14 L2,14 L2,13 L1,13 L1,11 L0,11 L0,7 L-1,7 L-1,5 L0,5 Z " fill="#8C386F" transform="translate(12,112)"/>
<path d="M0,0 L1,0 L1,1 L2,1 L2,2 L4,2 L4,3 L5,3 L5,4 L7,4 L7,5 L8,5 L8,6 L10,6 L10,7 L11,7 L11,8 L12,8 L12,9 L13,9 L13,10 L14,10 L14,11 L15,11 L15,13 L16,13 L16,14 L17,14 L17,16 L16,16 L16,19 L15,19 L15,17 L13,17 L13,14 L12,14 L12,11 L10,11 L10,10 L4,10 L4,12 L2,12 L2,11 L1,11 L1,9 L-1,9 L-1,8 L0,8 L0,7 L1,7 L1,6 L0,6 L0,5 L-2,5 L-2,6 L-1,6 L-1,7 L-3,7 L-3,5 L-5,5 L-5,4 L-4,4 L-4,3 L-2,3 L-2,4 L0,4 L0,3 L1,3 L1,2 L0,2 Z M11,17 L13,17 L13,19 L12,19 L12,18 L11,18 Z " fill="#5384BC" transform="translate(118,30)"/>
<path d="M0,0 L1,0 L1,6 L2,6 L2,7 L1,7 L1,20 L2,20 L2,21 L5,21 L5,20 L8,20 L8,18 L10,18 L10,20 L13,20 L13,21 L11,21 L11,22 L8,22 L8,23 L10,23 L10,24 L9,24 L9,27 L11,27 L11,30 L13,30 L13,28 L15,28 L15,30 L14,30 L14,32 L16,32 L16,33 L13,33 L13,32 L10,32 L10,31 L9,31 L9,30 L8,30 L8,29 L5,29 L5,27 L4,27 L4,26 L2,26 L2,25 L0,25 Z " fill="#5C9ADE" transform="translate(83,9)"/>
<path d="M0,0 L1,0 L1,1 L2,1 L2,2 L3,2 L3,3 L4,3 L4,4 L5,4 L5,5 L6,5 L6,6 L7,6 L7,7 L8,7 L8,8 L9,8 L9,9 L10,9 L10,10 L11,10 L11,11 L12,11 L12,13 L11,13 L11,14 L10,14 L10,15 L8,15 L8,16 L6,16 L6,17 L5,17 L5,18 L3,18 L3,19 L2,19 L2,20 L0,20 L0,21 L-1,21 L-1,22 L-2,22 L-2,18 L-1,18 L-1,17 L0,17 L0,16 L1,16 L1,15 L2,15 L2,14 L3,14 L3,13 L4,13 L4,12 L5,12 L5,11 L6,11 L6,10 L5,10 L5,7 L3,7 L3,6 L0,6 L0,7 L-1,7 L-1,8 L-2,8 L-2,5 L-1,5 L-1,4 L-3,4 L-3,2 L-2,2 L-2,3 L0,3 Z " fill="#BBA85F" transform="translate(99,130)"/>
<path d="M0,0 L1,0 L1,4 L2,4 L2,3 L3,3 L3,2 L4,2 L4,7 L3,7 L3,8 L1,8 L1,9 L0,9 L0,11 L1,11 L1,13 L0,13 L0,16 L-2,16 L-2,19 L-3,19 L-3,67 L-4,67 L-4,9 L-3,9 L-3,8 L-1,8 L-1,7 L0,7 Z " fill="#C42A95" transform="translate(16,45)"/>
<path d="M0,0 L1,0 L1,2 L2,2 L2,5 L3,5 L3,2 L5,2 L5,4 L4,4 L4,7 L5,7 L5,6 L6,6 L6,5 L7,5 L7,6 L8,6 L8,7 L9,7 L9,6 L10,6 L10,8 L12,8 L12,9 L11,9 L11,10 L10,10 L10,11 L11,11 L11,12 L13,12 L13,14 L14,14 L14,16 L13,16 L13,17 L8,17 L8,16 L7,16 L7,15 L6,15 L6,14 L5,14 L5,12 L3,12 L3,10 L2,10 L2,8 L1,8 L1,7 L0,7 Z " fill="#D41F9E" transform="translate(13,112)"/>
<path d="M0,0 L2,0 L2,1 L3,1 L3,2 L5,2 L5,3 L6,3 L6,4 L8,4 L8,5 L10,5 L10,6 L11,6 L11,7 L13,7 L13,8 L14,8 L14,9 L16,9 L16,10 L17,10 L17,11 L19,11 L19,12 L21,12 L21,13 L22,13 L22,14 L21,14 L21,15 L16,15 L16,16 L13,16 L13,15 L15,15 L15,13 L13,13 L13,12 L12,12 L12,11 L11,11 L11,10 L10,10 L10,9 L6,9 L6,7 L5,7 L5,6 L4,6 L4,8 L3,8 L3,10 L2,10 L2,7 L1,7 L1,6 L0,6 Z " fill="#517FB3" transform="translate(84,9)"/>
<path d="M0,0 L1,0 L1,2 L4,2 L4,3 L7,3 L7,4 L10,4 L10,3 L11,3 L11,1 L15,1 L15,2 L14,2 L14,5 L13,5 L13,6 L12,6 L12,8 L11,8 L11,9 L9,9 L9,10 L12,10 L12,11 L10,11 L10,13 L9,13 L9,11 L7,11 L7,10 L6,10 L6,9 L4,9 L4,8 L3,8 L3,7 L1,7 L1,6 L0,6 L0,5 L-2,5 L-2,4 L-3,4 L-3,3 L-4,3 L-4,2 L-3,2 L-3,1 L0,1 Z " fill="#800C77" transform="translate(42,116)"/>
<path d="M0,0 L3,0 L3,1 L2,1 L2,2 L1,2 L1,3 L0,3 L0,4 L-1,4 L-1,5 L-3,5 L-3,7 L-4,7 L-4,8 L-5,8 L-5,9 L-6,9 L-6,10 L-7,10 L-7,11 L-8,11 L-8,12 L-9,12 L-9,13 L-10,13 L-10,14 L-11,14 L-11,15 L-12,15 L-12,16 L-13,16 L-13,17 L-14,17 L-14,19 L-16,19 L-16,20 L-19,20 L-19,19 L-17,19 L-17,18 L-16,18 L-16,16 L-15,16 L-15,15 L-14,15 L-14,12 L-13,12 L-13,11 L-12,11 L-12,10 L-10,10 L-10,8 L-12,8 L-12,9 L-13,9 L-13,7 L-12,7 L-12,6 L-13,6 L-13,4 L-12,4 L-12,3 L-9,3 L-9,4 L-8,4 L-8,6 L-6,6 L-6,5 L-5,5 L-5,4 L-3,4 L-3,2 L-2,2 L-2,1 L0,1 Z " fill="#800B68" transform="translate(70,106)"/>
<path d="M0,0 L1,0 L1,2 L2,2 L2,5 L3,5 L3,71 L2,71 L2,74 L1,74 L1,77 L-1,77 L-1,73 L0,73 L0,72 L1,72 L1,67 L2,67 L2,9 L1,9 L1,4 L0,4 Z " fill="#4C6178" transform="translate(135,46)"/>
<path d="M0,0 L2,0 L2,1 L3,1 L3,2 L5,2 L5,3 L7,3 L7,4 L8,4 L8,5 L9,5 L9,6 L11,6 L11,9 L9,9 L9,8 L8,8 L8,9 L7,9 L7,10 L6,10 L6,11 L5,11 L5,10 L3,10 L3,9 L2,9 L2,8 L3,8 L3,7 L0,7 L0,6 L-1,6 L-1,7 L-2,7 L-2,6 L-3,6 L-3,4 L-5,4 L-5,2 L-2,2 L-2,3 L-1,3 L-1,2 L0,2 Z " fill="#5285BC" transform="translate(106,23)"/>
<path d="M0,0 L1,0 L1,1 L2,1 L2,3 L3,3 L3,4 L5,4 L5,5 L6,5 L6,7 L7,7 L7,8 L9,8 L9,9 L13,9 L13,8 L15,8 L15,7 L16,7 L16,5 L18,5 L18,4 L20,4 L20,6 L19,6 L19,7 L18,7 L18,9 L17,9 L17,10 L15,10 L15,11 L14,11 L14,12 L13,12 L13,13 L12,13 L12,14 L10,14 L10,13 L9,13 L9,12 L8,12 L8,11 L7,11 L7,10 L6,10 L6,9 L5,9 L5,8 L4,8 L4,7 L3,7 L3,6 L2,6 L2,5 L1,5 L1,4 L0,4 L0,3 L-1,3 L-1,2 L-2,2 L-2,1 L0,1 Z " fill="#557598" transform="translate(114,120)"/>
<path d="M0,0 L1,0 L1,2 L0,2 L0,4 L-1,4 L-1,6 L-3,6 L-3,7 L-4,7 L-4,8 L-3,8 L-3,9 L-6,9 L-6,10 L-7,10 L-7,11 L-9,11 L-9,14 L-10,14 L-10,15 L-9,15 L-9,16 L-10,16 L-10,17 L-13,17 L-13,16 L-14,16 L-14,14 L-15,14 L-15,13 L-13,13 L-13,11 L-12,11 L-12,10 L-11,10 L-11,9 L-9,9 L-9,8 L-8,8 L-8,6 L-7,6 L-7,5 L-6,5 L-6,4 L-4,4 L-4,3 L-3,3 L-3,1 L0,1 Z " fill="#CDBB6D" transform="translate(52,128)"/>
<path d="M0,0 L1,0 L1,1 L2,1 L2,2 L1,2 L1,4 L2,4 L2,7 L3,7 L3,8 L4,8 L4,9 L3,9 L3,10 L2,10 L2,51 L3,51 L3,55 L2,55 L2,60 L1,60 L1,6 L0,6 L0,5 L-1,5 L-1,2 L0,2 Z " fill="#9C0879" transform="translate(66,32)"/>
<path d="M0,0 L2,0 L2,1 L4,1 L4,2 L6,2 L6,3 L7,3 L7,4 L8,4 L8,5 L9,5 L9,6 L11,6 L11,5 L10,5 L10,4 L9,4 L9,3 L12,3 L12,4 L13,4 L13,6 L14,6 L14,7 L15,7 L15,8 L16,8 L16,9 L17,9 L17,10 L19,10 L19,12 L18,12 L18,13 L16,13 L16,12 L14,12 L14,11 L13,11 L13,10 L12,10 L12,9 L10,9 L10,8 L9,8 L9,7 L7,7 L7,6 L5,6 L5,5 L4,5 L4,4 L3,4 L3,3 L1,3 L1,2 L-1,2 L-1,1 L0,1 Z " fill="#AC9C68" transform="translate(42,144)"/>
<path d="M0,0 L2,0 L2,2 L3,2 L3,3 L0,3 L0,4 L-2,4 L-2,5 L-3,5 L-3,6 L-4,6 L-4,7 L-6,7 L-6,8 L-8,8 L-8,9 L-9,9 L-9,10 L-10,10 L-10,12 L-9,12 L-9,13 L-11,13 L-11,11 L-12,11 L-12,10 L-13,10 L-13,9 L-14,9 L-14,8 L-15,8 L-15,7 L-16,7 L-16,6 L-17,6 L-17,5 L-15,5 L-15,6 L-12,6 L-12,7 L-11,7 L-11,6 L-9,6 L-9,4 L-7,4 L-7,3 L-5,3 L-5,2 L-3,2 L-3,3 L-1,3 L-1,2 L1,2 L1,1 L0,1 Z " fill="#6F3073" transform="translate(108,117)"/>
<path d="M0,0 L1,0 L1,1 L2,1 L2,2 L3,2 L3,3 L4,3 L4,4 L2,4 L2,7 L3,7 L3,9 L2,9 L2,8 L1,8 L1,10 L-1,10 L-1,11 L-3,11 L-3,13 L0,13 L0,12 L1,12 L1,13 L2,13 L2,14 L3,14 L3,16 L2,16 L2,17 L-1,17 L-1,16 L-3,16 L-3,15 L-4,15 L-4,10 L-3,10 L-3,8 L-4,8 L-4,6 L-3,6 L-3,7 L-1,7 L-1,4 L-2,4 L-2,3 L0,3 Z " fill="#770877" transform="translate(94,106)"/>
<path d="M0,0 L2,0 L2,1 L1,1 L1,3 L-1,3 L-1,4 L-2,4 L-2,5 L-1,5 L-1,6 L0,6 L0,7 L1,7 L1,6 L2,6 L2,8 L-1,8 L-1,12 L-4,12 L-4,11 L-5,11 L-5,13 L-6,13 L-6,11 L-11,11 L-11,10 L-9,10 L-9,9 L-8,9 L-8,8 L-7,8 L-7,6 L-6,6 L-6,5 L-5,5 L-5,4 L-3,4 L-3,3 L-2,3 L-2,2 L-1,2 L-1,1 L0,1 Z " fill="#8A0B7A" transform="translate(55,102)"/>
<path d="M0,0 L2,0 L2,1 L1,1 L1,2 L0,2 L0,3 L-2,3 L-2,4 L-3,4 L-3,5 L-4,5 L-4,6 L-5,6 L-5,7 L-3,7 L-3,8 L-6,8 L-6,7 L-7,7 L-7,8 L-8,8 L-8,9 L-9,9 L-9,12 L-10,12 L-10,14 L-11,14 L-11,15 L-13,15 L-13,10 L-12,10 L-12,8 L-10,8 L-10,6 L-9,6 L-9,5 L-7,5 L-7,3 L-5,3 L-5,2 L-4,2 L-4,1 L0,1 Z " fill="#D00381" transform="translate(44,48)"/>
<path d="M0,0 L2,0 L2,1 L4,1 L4,0 L5,0 L5,49 L4,49 L4,2 L3,2 L3,3 L-1,3 L-1,1 L0,1 Z " fill="#730D7B" transform="translate(75,43)"/>
<path d="M0,0 L4,0 L4,1 L2,1 L2,2 L1,2 L1,3 L-1,3 L-1,4 L-2,4 L-2,5 L-4,5 L-4,6 L-6,6 L-6,7 L-8,7 L-8,8 L-10,8 L-10,9 L-26,9 L-26,8 L-29,8 L-29,7 L-30,7 L-30,6 L-28,6 L-28,7 L-25,7 L-25,8 L-11,8 L-11,7 L-10,7 L-10,4 L-5,4 L-5,3 L-4,3 L-4,2 L0,2 Z " fill="#928357" transform="translate(92,152)"/>
<path d="M0,0 L2,0 L2,1 L1,1 L1,3 L0,3 L0,4 L-2,4 L-2,5 L-3,5 L-3,6 L-4,6 L-4,8 L-5,8 L-5,9 L-7,9 L-7,10 L-8,10 L-8,11 L-12,11 L-12,10 L-14,10 L-14,9 L-9,9 L-9,8 L-8,8 L-8,6 L-9,6 L-9,4 L-11,4 L-11,3 L-12,3 L-12,2 L-11,2 L-11,1 L-9,1 L-9,3 L-7,3 L-7,4 L-8,4 L-8,5 L-7,5 L-7,6 L-6,6 L-6,3 L-3,3 L-3,1 L0,1 Z " fill="#BC3492" transform="translate(35,120)"/>
<path d="M0,0 L3,0 L3,1 L4,1 L4,3 L7,3 L7,4 L8,4 L8,5 L9,5 L9,8 L8,8 L8,10 L6,10 L6,11 L5,11 L5,12 L4,12 L4,9 L1,9 L1,6 L3,6 L3,5 L2,5 L2,4 L1,4 L1,1 L0,1 Z " fill="#2650CF" transform="translate(84,35)"/>
<path d="M0,0 L1,0 L1,1 L2,1 L2,3 L3,3 L3,4 L5,4 L5,7 L7,7 L7,8 L8,8 L8,10 L9,10 L9,11 L10,11 L10,12 L13,12 L13,14 L14,14 L14,16 L15,16 L15,17 L16,17 L16,18 L17,18 L17,19 L18,19 L18,20 L19,20 L19,22 L20,22 L20,23 L21,23 L21,24 L22,24 L22,25 L19,25 L19,23 L18,23 L18,21 L17,21 L17,20 L16,20 L16,19 L15,19 L15,18 L14,18 L14,17 L13,17 L13,16 L12,16 L12,15 L11,15 L11,14 L10,14 L10,13 L9,13 L9,12 L8,12 L8,11 L7,11 L7,10 L6,10 L6,9 L5,9 L5,8 L4,8 L4,6 L3,6 L3,5 L2,5 L2,4 L1,4 L1,3 L0,3 Z " fill="#4B3FC1" transform="translate(86,92)"/>
<path d="M0,0 L2,0 L2,3 L1,3 L1,4 L0,4 L0,5 L-1,5 L-1,6 L-2,6 L-2,10 L-9,10 L-9,6 L-10,6 L-10,5 L-8,5 L-8,6 L-6,6 L-6,4 L-3,4 L-3,3 L-2,3 L-2,2 L0,2 Z " fill="#E1C139" transform="translate(99,142)"/>
<path d="M0,0 L4,0 L4,1 L5,1 L5,3 L6,3 L6,4 L8,4 L8,5 L9,5 L9,6 L11,6 L11,7 L12,7 L12,9 L13,9 L13,10 L14,10 L14,11 L15,11 L15,9 L16,9 L16,10 L17,10 L17,16 L18,16 L18,17 L16,17 L16,15 L15,15 L15,14 L14,14 L14,13 L13,13 L13,12 L12,12 L12,10 L10,10 L10,9 L9,9 L9,8 L8,8 L8,7 L7,7 L7,6 L6,6 L6,5 L5,5 L5,4 L4,4 L4,3 L3,3 L3,2 L2,2 L2,1 L0,1 Z " fill="#8A173E" transform="translate(73,105)"/>
<path d="M0,0 L1,0 L1,4 L2,4 L2,3 L3,3 L3,2 L4,2 L4,7 L3,7 L3,8 L1,8 L1,9 L0,9 L0,11 L1,11 L1,13 L0,13 L0,16 L-2,16 L-2,19 L-3,19 L-3,8 L-1,8 L-1,7 L0,7 Z " fill="#CD1D95" transform="translate(16,45)"/>
<path d="M0,0 L2,0 L2,1 L3,1 L3,2 L4,2 L4,3 L5,3 L5,4 L6,4 L6,5 L7,5 L7,6 L8,6 L8,7 L9,7 L9,8 L10,8 L10,9 L12,9 L12,11 L13,11 L13,12 L14,12 L14,13 L15,13 L15,14 L16,14 L16,16 L14,16 L14,15 L13,15 L13,14 L12,14 L12,13 L11,13 L11,12 L10,12 L10,11 L9,11 L9,10 L8,10 L8,8 L4,8 L4,6 L3,6 L3,4 L2,4 L2,2 L0,2 L0,3 L-2,3 L-2,2 L-1,2 L-1,1 L0,1 Z " fill="#F48F60" transform="translate(73,106)"/>
<path d="M0,0 L1,0 L1,1 L2,1 L2,2 L4,2 L4,3 L5,3 L5,4 L7,4 L7,5 L6,5 L6,7 L5,7 L5,9 L3,9 L3,10 L1,10 L1,9 L-1,9 L-1,8 L0,8 L0,7 L1,7 L1,6 L0,6 L0,5 L-2,5 L-2,6 L-1,6 L-1,7 L-3,7 L-3,5 L-5,5 L-5,4 L-4,4 L-4,3 L-2,3 L-2,4 L0,4 L0,3 L1,3 L1,2 L0,2 Z " fill="#447FB8" transform="translate(118,30)"/>
<path d="M0,0 L2,0 L2,1 L1,1 L1,2 L0,2 L0,3 L-1,3 L-1,4 L-3,4 L-3,5 L-4,5 L-4,6 L-5,6 L-5,8 L-6,8 L-6,9 L-7,9 L-7,10 L-9,10 L-9,12 L-10,12 L-10,14 L-11,14 L-11,15 L-14,15 L-14,16 L-17,16 L-17,15 L-18,15 L-18,14 L-19,14 L-19,13 L-17,13 L-17,14 L-16,14 L-16,15 L-15,15 L-15,13 L-13,13 L-13,12 L-12,12 L-12,10 L-11,10 L-11,9 L-8,9 L-8,7 L-6,7 L-6,5 L-5,5 L-5,4 L-4,4 L-4,3 L-3,3 L-3,2 L-2,2 L-2,1 L0,1 Z " fill="#CD098B" transform="translate(53,102)"/>
<path d="M0,0 L6,0 L6,1 L8,1 L8,4 L9,4 L9,6 L8,6 L8,5 L7,5 L7,6 L6,6 L6,5 L2,5 L2,4 L0,4 L0,7 L-3,7 L-3,6 L-2,6 L-2,5 L-1,5 L-1,4 L-3,4 L-3,3 L-2,3 L-2,2 L0,2 Z " fill="#4385CF" transform="translate(122,40)"/>
<path d="M0,0 L3,0 L3,21 L2,21 L2,24 L1,24 L1,20 L0,20 L0,16 L1,16 L1,1 L0,1 Z " fill="#8B4576" transform="translate(64,9)"/>
<path d="M0,0 L3,0 L3,2 L5,2 L5,5 L3,5 L3,4 L2,4 L2,6 L3,6 L3,7 L2,7 L2,8 L1,8 L1,6 L-3,6 L-3,7 L-2,7 L-2,8 L-4,8 L-4,6 L-5,6 L-5,4 L-4,4 L-4,3 L-3,3 L-3,2 L-2,2 L-2,1 L0,1 Z " fill="#F4D157" transform="translate(94,128)"/>
<path d="M0,0 L2,0 L2,1 L3,1 L3,2 L6,2 L6,5 L7,5 L7,6 L8,6 L8,9 L6,9 L6,10 L4,10 L4,11 L2,11 L2,10 L1,10 L1,9 L2,9 L2,7 L1,7 L1,6 L3,6 L3,3 L1,3 L1,2 L0,2 Z " fill="#840E8D" transform="translate(86,100)"/>
<path d="M0,0 L1,0 L1,1 L2,1 L2,2 L3,2 L3,3 L4,3 L4,4 L5,4 L5,5 L6,5 L6,6 L7,6 L7,7 L8,7 L8,8 L9,8 L9,9 L10,9 L10,10 L11,10 L11,11 L12,11 L12,13 L13,13 L13,15 L16,15 L16,16 L17,16 L17,17 L15,17 L15,18 L13,18 L13,17 L12,17 L12,16 L11,16 L11,14 L10,14 L10,12 L9,12 L9,10 L8,10 L8,9 L7,9 L7,8 L6,8 L6,7 L5,7 L5,6 L4,6 L4,5 L3,5 L3,4 L1,4 L1,3 L0,3 Z " fill="#600C77" transform="translate(92,102)"/>
<path d="M0,0 L3,0 L3,1 L1,1 L1,2 L2,2 L2,3 L4,3 L4,4 L6,4 L6,5 L8,5 L8,6 L12,6 L12,7 L13,7 L13,5 L15,5 L15,7 L14,7 L14,8 L12,8 L12,9 L15,9 L15,10 L13,10 L13,12 L12,12 L12,10 L10,10 L10,9 L9,9 L9,8 L7,8 L7,7 L6,7 L6,6 L4,6 L4,5 L3,5 L3,4 L1,4 L1,3 L0,3 L0,2 L-1,2 L-1,1 L0,1 Z " fill="#803A72" transform="translate(39,117)"/>
<path d="M0,0 L2,0 L2,4 L3,4 L3,5 L2,5 L2,19 L1,19 L1,22 L-1,22 L-1,20 L0,20 Z " fill="#5398F0" transform="translate(119,85)"/>
<path d="M0,0 L3,0 L3,1 L5,1 L5,4 L3,4 L3,5 L2,5 L2,6 L0,6 L0,7 L-1,7 L-1,8 L-3,8 L-3,9 L-6,9 L-6,8 L-5,8 L-5,7 L-4,7 L-4,5 L-1,5 L-1,4 L-3,4 L-3,3 L-1,3 L-1,1 L0,1 Z " fill="#EC24AF" transform="translate(43,41)"/>
<path d="M0,0 L1,0 L1,1 L2,1 L2,3 L6,3 L6,4 L5,4 L5,6 L4,6 L4,7 L5,7 L5,8 L4,8 L4,9 L1,9 L1,8 L2,8 L2,7 L0,7 L0,8 L-1,8 L-1,9 L-2,9 L-2,4 L-1,4 L-1,2 L0,2 Z " fill="#4189D5" transform="translate(88,15)"/>
<path d="M0,0 L2,0 L2,1 L4,1 L4,2 L2,2 L2,3 L-1,3 L-1,5 L-3,5 L-3,6 L-4,6 L-4,7 L-15,7 L-15,6 L-10,6 L-10,5 L-9,5 L-9,6 L-8,6 L-8,5 L-7,5 L-7,6 L-6,6 L-6,5 L-4,5 L-4,4 L-5,4 L-5,1 L0,1 Z " fill="#DDBD3C" transform="translate(85,151)"/>
<path d="M0,0 L2,0 L2,1 L4,1 L4,0 L5,0 L5,1 L7,1 L7,2 L6,2 L6,4 L8,4 L8,5 L10,5 L10,7 L11,7 L11,8 L13,8 L13,9 L14,9 L14,10 L11,10 L11,9 L10,9 L10,8 L9,8 L9,7 L7,7 L7,6 L5,6 L5,5 L4,5 L4,4 L2,4 L2,3 L0,3 Z " fill="#5598F2" transform="translate(100,42)"/>
<path d="M0,0 L1,0 L1,2 L2,2 L2,4 L3,4 L3,5 L2,5 L2,6 L0,6 L0,7 L-2,7 L-2,9 L-4,9 L-4,10 L-5,10 L-5,8 L-4,8 L-4,2 L-2,2 L-2,1 L0,1 Z " fill="#820D78" transform="translate(101,114)"/>
<path d="M0,0 L3,0 L3,5 L2,5 L2,7 L1,7 L1,6 L-1,6 L-1,7 L0,7 L0,8 L1,8 L1,10 L0,10 L0,9 L-2,9 L-2,10 L-5,10 L-5,8 L-3,8 L-3,6 L-2,6 L-2,4 L-1,4 L-1,3 L0,3 Z " fill="#5795F1" transform="translate(117,109)"/>
<path d="M0,0 L1,0 L1,2 L2,2 L2,5 L3,5 L3,2 L5,2 L5,4 L4,4 L4,9 L5,9 L5,10 L4,10 L4,11 L6,11 L6,13 L8,13 L8,14 L5,14 L5,12 L3,12 L3,10 L2,10 L2,8 L1,8 L1,7 L0,7 Z " fill="#CC1D95" transform="translate(13,112)"/>
<path d="M0,0 L5,0 L5,1 L4,1 L4,3 L3,3 L3,5 L2,5 L2,10 L-1,10 L-1,7 L0,7 L0,4 L-1,4 L-1,5 L-2,5 L-2,3 L-1,3 L-1,1 L0,1 Z " fill="#4088CD" transform="translate(130,115)"/>
<path d="M0,0 L2,0 L2,1 L3,1 L3,16 L2,16 L2,7 L1,7 L1,5 L-3,5 L-3,2 L-1,2 L-1,1 L0,1 Z " fill="#B1378A" transform="translate(62,9)"/>
<path d="M0,0 L1,0 L1,1 L2,1 L2,3 L0,3 L0,12 L-1,12 L-1,13 L-3,13 L-3,14 L-4,14 L-4,12 L-3,12 L-3,10 L-2,10 L-2,7 L-4,7 L-4,6 L-3,6 L-3,4 L-2,4 L-2,2 L-1,2 L-1,1 L0,1 Z " fill="#BC2886" transform="translate(16,40)"/>
<path d="M0,0 L3,0 L3,2 L4,2 L4,9 L3,9 L3,6 L2,6 L2,7 L1,7 L1,8 L-1,8 L-1,2 L-2,2 L-2,1 L0,1 Z " fill="#D41E9D" transform="translate(60,14)"/>
<path d="M0,0 L3,0 L3,1 L6,1 L6,3 L9,3 L9,5 L11,5 L11,3 L13,3 L13,5 L12,5 L12,7 L14,7 L14,8 L11,8 L11,7 L8,7 L8,6 L7,6 L7,5 L6,5 L6,4 L3,4 L3,2 L2,2 L2,1 L0,1 Z " fill="#5498F2" transform="translate(85,34)"/>
<path d="M0,0 L3,0 L3,1 L4,1 L4,3 L5,3 L5,4 L6,4 L6,5 L7,5 L7,6 L8,6 L8,7 L10,7 L10,9 L9,9 L9,10 L7,10 L7,9 L5,9 L5,8 L4,8 L4,7 L3,7 L3,5 L4,5 L4,4 L3,4 L3,3 L2,3 L2,2 L1,2 L1,1 L0,1 Z " fill="#BDA955" transform="translate(51,147)"/>
<path d="M0,0 L1,0 L1,1 L2,1 L2,2 L3,2 L3,3 L4,3 L4,4 L5,4 L5,5 L6,5 L6,6 L7,6 L7,8 L8,8 L8,9 L9,9 L9,10 L6,10 L6,9 L5,9 L5,8 L2,8 L2,5 L1,5 L1,4 L0,4 Z " fill="#5D189A" transform="translate(83,92)"/>
<path d="M0,0 L3,0 L3,1 L2,1 L2,2 L1,2 L1,3 L0,3 L0,4 L-1,4 L-1,5 L-3,5 L-3,7 L-4,7 L-4,8 L-5,8 L-5,9 L-6,9 L-6,10 L-7,10 L-7,11 L-8,11 L-8,12 L-9,12 L-9,9 L-7,9 L-7,7 L-5,7 L-5,4 L-3,4 L-3,2 L-2,2 L-2,1 L0,1 Z " fill="#8A1143" transform="translate(70,106)"/>
<path d="M0,0 L1,0 L1,1 L3,1 L3,2 L2,2 L2,4 L1,4 L1,5 L-3,5 L-3,7 L-5,7 L-5,5 L-6,5 L-6,6 L-8,6 L-8,5 L-7,5 L-7,4 L-5,4 L-5,3 L-4,3 L-4,2 L-2,2 L-2,1 L0,1 Z " fill="#A4357E" transform="translate(33,28)"/>
<path d="M0,0 L1,0 L1,1 L2,1 L2,2 L3,2 L3,3 L4,3 L4,4 L5,4 L5,7 L3,7 L3,6 L0,6 L0,7 L-1,7 L-1,8 L-2,8 L-2,5 L-1,5 L-1,4 L-3,4 L-3,2 L-2,2 L-2,3 L0,3 Z " fill="#C4AC5B" transform="translate(99,130)"/>
<path d="M0,0 L2,0 L2,1 L4,1 L4,2 L5,2 L5,3 L7,3 L7,4 L20,4 L20,5 L6,5 L6,4 L3,4 L3,3 L-1,3 L-1,1 L0,1 Z " fill="#D1BB71" transform="translate(61,155)"/>
<path d="M0,0 L6,0 L6,1 L4,1 L4,2 L2,2 L2,3 L1,3 L1,4 L-1,4 L-1,5 L-2,5 L-2,6 L-4,6 L-4,7 L-5,7 L-5,8 L-6,8 L-6,4 L-3,4 L-3,3 L-2,3 L-2,2 L-1,2 L-1,1 L0,1 Z " fill="#A59662" transform="translate(103,144)"/>
<path d="M0,0 L1,0 L1,3 L2,3 L2,7 L1,7 L1,8 L-2,8 L-2,6 L-3,6 L-3,5 L-5,5 L-5,4 L-4,4 L-4,3 L-2,3 L-2,2 L-1,2 L-1,1 L0,1 Z " fill="#4289D5" transform="translate(126,121)"/>
<path d="M0,0 L1,0 L1,4 L3,4 L3,7 L4,7 L4,10 L3,10 L3,16 L2,16 L2,9 L3,9 L3,8 L0,8 L0,6 L-1,6 L-1,2 L0,2 Z M-1,8 L0,8 L0,9 L-1,9 Z " fill="#3F85CF" transform="translate(131,47)"/>
<path d="M0,0 L1,0 L1,1 L2,1 L2,2 L3,2 L3,3 L4,3 L4,5 L5,5 L5,6 L6,6 L6,8 L5,8 L5,11 L4,11 L4,9 L2,9 L2,6 L1,6 L1,2 L0,2 Z M0,9 L2,9 L2,11 L1,11 L1,10 L0,10 Z " fill="#4F78A2" transform="translate(129,38)"/>
<path d="M0,0 L2,0 L2,2 L1,2 L1,3 L0,3 L0,5 L-1,5 L-1,6 L-2,6 L-2,7 L-6,7 L-6,8 L-7,8 L-7,9 L-9,9 L-9,8 L-8,8 L-8,6 L-4,6 L-4,5 L-3,5 L-3,3 L-2,3 L-2,2 L-4,2 L-4,1 L0,1 Z " fill="#CB2497" transform="translate(38,27)"/>
<path d="M0,0 L2,0 L2,3 L1,3 L1,5 L0,5 L0,21 L-1,21 L-1,2 L0,2 Z " fill="#AA4E8D" transform="translate(12,47)"/>
<path d="M0,0 L1,0 L1,8 L3,8 L3,10 L4,10 L4,12 L6,12 L6,14 L3,14 L3,13 L2,13 L2,12 L1,12 L1,9 L0,9 Z " fill="#D1007E" transform="translate(31,101)"/>
<path d="M0,0 L2,0 L2,5 L3,5 L3,9 L2,9 L2,10 L1,10 L1,12 L0,12 Z " fill="#5599EF" transform="translate(119,67)"/>
<path d="M0,0 L2,0 L2,1 L1,1 L1,3 L-1,3 L-1,6 L-5,6 L-5,7 L-9,7 L-9,6 L-7,6 L-7,5 L-6,5 L-6,4 L-4,4 L-4,3 L-3,3 L-3,2 L-1,2 L-1,1 L0,1 Z " fill="#903D78" transform="translate(43,21)"/>
<path d="M0,0 L1,0 L1,4 L-1,4 L-1,6 L0,6 L0,7 L-4,7 L-4,6 L-2,6 L-2,5 L-6,5 L-6,4 L-5,4 L-5,3 L-4,3 L-4,2 L-3,2 L-3,1 L0,1 Z " fill="#D3209D" transform="translate(57,16)"/>
<path d="M0,0 L1,0 L1,1 L2,1 L2,3 L3,3 L3,4 L5,4 L5,5 L6,5 L6,7 L7,7 L7,8 L4,8 L4,7 L3,7 L3,6 L2,6 L2,5 L1,5 L1,4 L0,4 L0,3 L-1,3 L-1,2 L-2,2 L-2,1 L0,1 Z " fill="#6084A8" transform="translate(114,120)"/>
<path d="M0,0 L2,0 L2,1 L5,1 L5,2 L8,2 L8,3 L7,3 L7,4 L8,4 L8,5 L7,5 L7,7 L8,7 L8,8 L6,8 L6,6 L5,6 L5,5 L4,5 L4,4 L3,4 L3,3 L2,3 L2,2 L1,2 L1,1 L0,1 Z " fill="#6B1E36" transform="translate(91,122)"/>
<path d="M0,0 L1,0 L1,4 L2,4 L2,5 L4,5 L4,6 L5,6 L5,8 L6,8 L6,11 L4,11 L4,9 L3,9 L3,10 L1,10 L1,8 L3,8 L3,7 L2,7 L2,6 L1,6 L1,5 L0,5 Z " fill="#ED24AD" transform="translate(29,108)"/>
<path d="M0,0 L6,0 L6,1 L7,1 L7,2 L6,2 L6,3 L4,3 L4,2 L2,2 L2,3 L0,3 L0,4 L-3,4 L-3,5 L-4,5 L-4,3 L-2,3 L-2,2 L-1,2 L-1,1 L0,1 Z " fill="#D41FA0" transform="translate(22,43)"/>
<path d="M0,0 L1,0 L1,2 L0,2 L0,3 L-1,3 L-1,6 L-2,6 L-2,7 L-3,7 L-3,8 L-5,8 L-5,10 L-6,10 L-6,9 L-8,9 L-8,8 L-6,8 L-6,6 L-4,6 L-4,4 L-3,4 L-3,3 L-2,3 L-2,2 L-1,2 L-1,1 L0,1 Z " fill="#F6905C" transform="translate(60,119)"/>
<path d="M0,0 L1,0 L1,1 L4,1 L4,0 L5,0 L5,1 L6,1 L6,2 L7,2 L7,4 L6,4 L6,5 L3,5 L3,4 L1,4 L1,3 L0,3 Z " fill="#7F0862" transform="translate(90,118)"/>
<path d="M0,0 L3,0 L3,1 L2,1 L2,2 L1,2 L1,3 L0,3 L0,4 L-1,4 L-1,5 L-2,5 L-2,7 L-4,7 L-4,8 L-7,8 L-7,7 L-5,7 L-5,6 L-4,6 L-4,4 L-3,4 L-3,3 L-2,3 L-2,2 L-1,2 L-1,1 L0,1 Z " fill="#891638" transform="translate(58,118)"/>
<path d="M0,0 L2,0 L2,1 L3,1 L3,2 L2,2 L2,4 L-1,4 L-1,5 L-4,5 L-4,6 L-6,6 L-6,5 L-5,5 L-5,4 L-4,4 L-4,3 L-3,3 L-3,2 L-1,2 L-1,1 L0,1 Z " fill="#953C74" transform="translate(23,34)"/>
<path d="M0,0 L2,0 L2,2 L1,2 L1,6 L-4,6 L-4,4 L-3,4 L-3,2 L0,2 Z " fill="#DFC65A" transform="translate(96,146)"/>
<path d="M0,0 L1,0 L1,1 L2,1 L2,4 L1,4 L1,5 L0,5 L0,6 L-4,6 L-4,5 L-3,5 L-3,2 L-1,2 L-1,1 L0,1 Z " fill="#9A097A" transform="translate(61,96)"/>
<path d="M0,0 L1,0 L1,1 L3,1 L3,2 L5,2 L5,3 L3,3 L3,5 L4,5 L4,6 L5,6 L5,10 L3,10 L3,6 L2,6 L2,5 L1,5 L1,2 L0,2 Z " fill="#5596F3" transform="translate(115,53)"/>
<path d="M0,0 L1,0 L1,7 L2,7 L2,8 L3,8 L3,10 L4,10 L4,12 L2,12 L2,10 L0,10 L0,7 L-1,7 L-1,5 L0,5 Z " fill="#A53B82" transform="translate(12,112)"/>
<path d="M0,0 L1,0 L1,2 L4,2 L4,3 L7,3 L7,4 L4,4 L4,5 L5,5 L5,6 L3,6 L3,5 L1,5 L1,4 L-1,4 L-1,3 L-2,3 L-2,2 L0,2 Z " fill="#7A0A69" transform="translate(42,116)"/>
<path d="M0,0 L1,0 L1,1 L2,1 L2,7 L3,7 L3,8 L1,8 L1,6 L0,6 L0,5 L-1,5 L-1,4 L-2,4 L-2,3 L-3,3 L-3,2 L-2,2 L-2,1 L-1,1 L-1,2 L0,2 Z " fill="#911B54" transform="translate(88,114)"/>
<path d="M0,0 L1,0 L1,1 L2,1 L2,2 L3,2 L3,3 L4,3 L4,4 L5,4 L5,5 L6,5 L6,6 L7,6 L7,7 L8,7 L8,8 L9,8 L9,9 L10,9 L10,10 L8,10 L8,9 L7,9 L7,8 L6,8 L6,7 L5,7 L5,6 L4,6 L4,5 L3,5 L3,4 L1,4 L1,3 L0,3 Z " fill="#5C1291" transform="translate(92,102)"/>
<path d="M0,0 L3,0 L3,1 L1,1 L1,5 L0,5 L0,6 L-1,6 L-1,10 L-2,10 L-2,6 L-3,6 L-3,4 L-1,4 L-1,2 L-2,2 L-2,1 L0,1 Z " fill="#BE278B" transform="translate(19,39)"/>
<path d="M0,0 L2,0 L2,1 L1,1 L1,4 L0,4 L0,6 L-1,6 L-1,7 L-2,7 L-2,6 L-3,6 L-3,4 L-5,4 L-5,2 L-2,2 L-2,3 L-1,3 L-1,2 L0,2 Z " fill="#4281C4" transform="translate(106,23)"/>
<path d="M0,0 L1,0 L1,2 L2,2 L2,3 L4,3 L4,5 L3,5 L3,6 L1,6 L1,5 L-1,5 L-1,4 L-2,4 L-2,2 L-1,2 L-1,1 L0,1 Z " fill="#E1C237" transform="translate(46,139)"/>
<path d="M0,0 L1,0 L1,3 L2,3 L2,6 L1,6 L1,4 L-2,4 L-2,6 L-3,6 L-3,8 L-4,8 L-4,4 L-3,4 L-3,3 L-2,3 L-2,1 L0,1 Z " fill="#FB9B3B" transform="translate(63,118)"/>
<path d="M0,0 L2,0 L2,1 L1,1 L1,3 L0,3 L0,4 L-3,4 L-3,5 L-6,5 L-6,4 L-7,4 L-7,3 L-8,3 L-8,2 L-6,2 L-6,3 L-5,3 L-5,4 L-4,4 L-4,2 L-2,2 L-2,1 L-1,1 L-1,2 L0,2 Z " fill="#C00A87" transform="translate(42,113)"/>
<path d="M0,0 L3,0 L3,1 L4,1 L4,5 L3,5 L3,4 L2,4 L2,5 L0,5 L0,3 L-1,3 L-1,1 L0,1 Z " fill="#800B87" transform="translate(58,103)"/>
<path d="M0,0 L2,0 L2,1 L1,1 L1,3 L-1,3 L-1,4 L-2,4 L-2,6 L-3,6 L-3,7 L-7,7 L-7,6 L-6,6 L-6,5 L-5,5 L-5,4 L-3,4 L-3,3 L-2,3 L-2,2 L-1,2 L-1,1 L0,1 Z " fill="#A4087F" transform="translate(55,102)"/>
<path d="M0,0 L1,0 L1,2 L4,2 L4,1 L6,1 L6,2 L5,2 L5,3 L4,3 L4,4 L5,4 L5,5 L3,5 L3,6 L2,6 L2,5 L1,5 L1,4 L0,4 L0,3 L-1,3 L-1,1 L0,1 Z " fill="#7C0E6F" transform="translate(68,33)"/>
<path d="M0,0 L1,0 L1,1 L2,1 L2,5 L-2,5 L-2,6 L-3,6 L-3,7 L-5,7 L-5,6 L-4,6 L-4,5 L-3,5 L-3,2 L-1,2 L-1,3 L0,3 L0,4 L1,4 L1,2 L0,2 Z " fill="#F18D1E" transform="translate(74,109)"/>
<path d="M0,0 L2,0 L2,2 L1,2 L1,5 L-1,5 L-1,7 L-2,7 L-2,9 L-3,9 L-3,6 L-2,6 L-2,2 L-1,2 L-1,1 L0,1 Z " fill="#ED24B0" transform="translate(30,56)"/>
<path d="M0,0 L1,0 L1,6 L2,6 L2,7 L-1,7 L-1,6 L-3,6 L-3,4 L-1,4 L-1,3 L-2,3 L-2,2 L-1,2 L-1,1 L0,1 Z " fill="#E028AF" transform="translate(63,23)"/>
<path d="M0,0 L3,0 L3,1 L2,1 L2,2 L0,2 L0,3 L-1,3 L-1,4 L-5,4 L-5,3 L-7,3 L-7,2 L-2,2 L-2,1 L0,1 Z " fill="#A53E85" transform="translate(28,127)"/>
<path d="M0,0 L1,0 L1,6 L-1,6 L-1,5 L-4,5 L-4,4 L-3,4 L-3,2 L-1,2 L-1,1 L0,1 Z " fill="#E99520" transform="translate(58,125)"/>
<path d="M0,0 L2,0 L2,2 L1,2 L1,3 L-1,3 L-1,4 L2,4 L2,5 L0,5 L0,7 L-1,7 L-1,5 L-3,5 L-3,4 L-2,4 L-2,3 L-3,3 L-3,1 L-1,1 L-1,2 L0,2 Z " fill="#76245A" transform="translate(52,122)"/>
<path d="M0,0 L1,0 L1,1 L2,1 L2,3 L0,3 L0,6 L-2,6 L-2,7 L-4,7 L-4,6 L-3,6 L-3,4 L-2,4 L-2,2 L-1,2 L-1,1 L0,1 Z " fill="#803066" transform="translate(16,40)"/>
<path d="M0,0 L2,0 L2,1 L1,1 L1,2 L0,2 L0,3 L-1,3 L-1,4 L0,4 L0,5 L-1,5 L-1,7 L0,7 L0,8 L-2,8 L-2,7 L-3,7 L-3,5 L-4,5 L-4,4 L-2,4 L-2,2 L-1,2 L-1,1 L0,1 Z " fill="#756D4C" transform="translate(41,137)"/>
<path d="M0,0 L2,0 L2,6 L1,6 L1,4 L-4,4 L-4,3 L-2,3 L-2,2 L-1,2 L-1,1 L0,1 Z " fill="#960677" transform="translate(48,109)"/>
<path d="M0,0 L4,0 L4,1 L5,1 L5,2 L4,2 L4,3 L3,3 L3,4 L2,4 L2,5 L0,5 L0,4 L1,4 L1,3 L0,3 Z " fill="#D21CA0" transform="translate(27,36)"/>
<path d="M0,0 L1,0 L1,2 L2,2 L2,3 L1,3 L1,4 L-1,4 L-1,3 L-3,3 L-3,4 L-4,4 L-4,5 L-3,5 L-3,6 L-5,6 L-5,5 L-6,5 L-6,4 L-5,4 L-5,3 L-4,3 L-4,2 L-3,2 L-3,1 L-2,1 L-2,2 L0,2 Z " fill="#5997DA" transform="translate(117,30)"/>
</svg>
