<svg version="1.1" xmlns="http://www.w3.org/2000/svg" width="512" height="512">
<path d="M0 0 C0.80932828 -0.00445784 1.61865656 -0.00891569 2.45250994 -0.01350862 C3.77782792 -0.01323207 3.77782792 -0.01323207 5.12992001 -0.01294994 C6.07296063 -0.01662663 7.01600125 -0.02030332 7.98761886 -0.02409142 C11.15565845 -0.03512677 14.32366523 -0.03897188 17.49172115 -0.04278088 C19.76014974 -0.0490457 22.02857731 -0.05569252 24.29700375 -0.0626936 C31.75439902 -0.08373623 39.21179451 -0.09409698 46.66921139 -0.10406017 C49.23704635 -0.10810782 51.80488121 -0.11222474 54.37271595 -0.11641026 C65.05548422 -0.13327997 75.73824908 -0.14791398 86.42102814 -0.155159 C89.19198832 -0.15706877 91.9629485 -0.15898912 94.73390865 -0.16094494 C95.42258386 -0.16142868 96.11125907 -0.16191242 96.82080322 -0.16241082 C107.96792732 -0.17070475 119.11494389 -0.19603129 130.26202107 -0.22852562 C141.71714565 -0.26164449 153.17219009 -0.27927975 164.62736744 -0.28280324 C171.05467723 -0.2851524 177.48181708 -0.29409569 183.90908146 -0.31926441 C189.95919014 -0.34257308 196.00901731 -0.3467669 202.05915928 -0.33650303 C204.27504317 -0.33600822 206.49094104 -0.3423122 208.70678234 -0.35605907 C224.0101517 -0.44565754 236.27453852 0.01637952 247.91530514 11.13422108 C254.98438553 18.72401498 259.04744278 28.51378085 259.03555965 38.91151905 C259.03762165 40.31016445 259.03762165 40.31016445 259.0397253 41.73706532 C259.03613003 42.74767017 259.03253475 43.75827503 259.02883053 44.79950428 C259.02897655 45.87312717 259.02912258 46.94675007 259.02927303 48.05290699 C259.0285771 51.59695941 259.02079957 55.1409591 259.01296139 58.68500233 C259.01109608 61.14408305 259.00967271 63.60316414 259.00867367 66.06224537 C259.00485741 72.53129574 258.9950347 79.00032363 258.98396969 85.46936512 C258.97373643 92.07184005 258.96917194 98.67431862 258.96413326 105.2767992 C258.95341166 118.22928275 258.9365384 131.18175072 258.91530514 144.13422108 C260.00001095 144.12533863 261.08471676 144.11645618 262.20229244 144.10730457 C272.44217819 144.02609403 282.6819983 143.96619582 292.92213345 143.92697239 C298.1862703 143.90612903 303.45014644 143.87787067 308.71413326 143.83246326 C313.79753832 143.78888973 318.88069314 143.76505952 323.96427059 143.7547121 C325.90029493 143.74734139 327.83630613 143.7329481 329.77222347 143.71130085 C332.49143854 143.6821138 335.20962962 143.67827144 337.92897701 143.68011951 C338.7230798 143.66573841 339.51718258 143.65135731 340.33534908 143.63654041 C346.84794295 143.68419609 351.83760394 145.69226125 356.93874264 149.73968983 C357.38475826 150.26176014 357.83077389 150.78383045 358.29030514 151.32172108 C358.75178951 151.83090076 359.21327389 152.34008045 359.68874264 152.86468983 C364.36211455 161.5119162 363.22509731 172.29583134 363.21608639 181.82953358 C363.21997958 183.54868135 363.22431552 185.26782816 363.22907162 186.98697376 C363.23650199 190.57596436 363.23626461 194.16485651 363.23097897 197.75384998 C363.22517152 202.34132268 363.2421614 206.92839331 363.26532364 211.51579952 C363.2800843 215.06066694 363.2809298 218.60543784 363.27781391 222.15033054 C363.27832539 223.84153385 363.28353038 225.5327428 363.29362583 227.22391605 C363.30602631 229.59027759 363.29917886 231.95585938 363.28761959 234.32220936 C363.29526333 235.01226063 363.30290707 235.7023119 363.31078243 236.41327381 C363.25705654 241.41429387 362.40341855 244.8591534 359.91530514 249.13422108 C358.26530514 249.46422108 356.61530514 249.79422108 354.91530514 250.13422108 C354.91530514 256.40422108 354.91530514 262.67422108 354.91530514 269.13422108 C356.56530514 269.79422108 358.21530514 270.45422108 359.91530514 271.13422108 C363.59052967 274.80944561 363.04499428 278.95674058 363.06056881 283.9630785 C363.06560673 284.98102497 363.06560673 284.98102497 363.07074642 286.01953602 C363.08023188 288.25960602 363.08219866 290.499601 363.08327389 292.73968983 C363.08648935 294.30425007 363.08985364 295.86881002 363.09335995 297.43336964 C363.09934607 300.71427576 363.1012005 303.99515558 363.10060787 307.27606678 C363.10050656 311.46096022 363.11412919 315.64568282 363.13138008 319.83053589 C363.14255411 323.06408415 363.14452539 326.29759191 363.14399815 329.53115749 C363.14517127 331.07277799 363.14955518 332.61439976 363.15733051 334.15600109 C363.25492559 355.51412933 363.25492559 355.51412933 357.72780514 361.50922108 C357.17737545 362.13570545 356.62694576 362.76218983 356.05983639 363.40765858 C350.41969087 367.94854076 345.01521758 368.56907666 338.0425024 368.47479725 C337.18316601 368.47523533 336.32382961 368.47567341 335.43845272 368.47612476 C332.61930174 368.47404728 329.80075751 368.45076565 326.98171139 368.42718983 C325.0187376 368.42159017 323.0557596 368.41732182 321.09278011 368.41432667 C315.9421331 368.40290703 310.79174243 368.37346467 305.64119625 368.34021473 C300.37908552 368.30945165 295.11693312 368.29580802 289.85475826 368.28070545 C279.54149499 368.24859219 269.22842143 368.19743076 258.91530514 368.13422108 C258.91807052 368.69099191 258.9208359 369.24776274 258.92368507 369.82140541 C258.99013346 383.4112186 259.03948507 397.00100307 259.07074165 410.59094429 C259.08636758 417.16313024 259.10754986 423.73519853 259.1416235 430.30731678 C259.17432628 436.6550731 259.19218125 443.00271656 259.19993687 449.35055065 C259.20546077 451.76693147 259.21624745 454.18330643 259.23249531 456.59963894 C259.25441439 459.99582141 259.25726598 463.3915432 259.25588131 466.78778553 C259.26666714 467.77681873 259.27745296 468.76585194 259.28856564 469.78485584 C259.23702827 481.54047285 256.10081987 492.31020159 248.09889889 501.13812733 C241.49989592 507.31052809 233.0470024 512.24041522 223.83340359 512.27123547 C223.02469201 512.27631001 222.21598042 512.28138455 221.38276243 512.28661287 C220.05846763 512.2873595 220.05846763 512.2873595 218.7074194 512.28812122 C217.76508434 512.29250348 216.82274928 512.29688573 215.85185862 512.30140078 C212.68615648 512.31478241 209.52048217 512.32096628 206.35475826 512.32709217 C204.08795197 512.33499375 201.82114694 512.34326274 199.55434322 512.35187244 C192.10175941 512.3780901 184.64916999 512.3934017 177.19655514 512.40765858 C174.629981 512.41301871 172.06340691 512.41839622 169.49683285 512.42379093 C158.81835771 512.44542093 148.13988542 512.46430754 137.46139431 512.47541332 C134.69147392 512.47834281 131.92155356 512.4813045 129.15163326 512.48431873 C128.46322037 512.48506478 127.77480747 512.48581083 127.06553358 512.48657949 C115.92552478 512.49922023 104.78567605 512.53242727 93.645742 512.57412057 C82.19625997 512.61661933 70.74689917 512.63971048 59.29733133 512.64533389 C52.87385822 512.64898356 46.45065641 512.66096438 40.02725887 512.69343662 C33.97956695 512.72357078 27.93230972 512.72980965 21.88455868 512.71805286 C19.67070042 512.71783257 17.45682167 512.7261009 15.24303341 512.7437067 C0.64665061 512.8534241 -11.31788139 512.59675972 -22.41281986 501.86859608 C-22.96453861 501.29625233 -23.51625736 500.72390858 -24.08469486 500.13422108 C-24.97156986 499.24734608 -25.85844486 498.36047108 -26.77219486 497.44672108 C-36.29600794 485.37246314 -35.23272806 470.12230791 -35.21840763 455.65636158 C-35.22027725 453.86698255 -35.22257855 452.07760393 -35.22527295 450.28822595 C-35.23137865 445.38343975 -35.23125881 440.47867063 -35.23007858 435.57388151 C-35.22987426 430.27927951 -35.23539625 424.98468296 -35.24013615 419.6900835 C-35.24843631 409.32195058 -35.25119069 398.95382333 -35.25174852 388.58568736 C-35.25222395 380.15732315 -35.25428 371.72896081 -35.25744915 363.30059719 C-35.26625367 339.39807021 -35.27086879 315.49554771 -35.27011868 291.59301909 C-35.27007872 290.30490432 -35.27003876 289.01678955 -35.2699976 287.689641 C-35.26995672 286.39995143 -35.26991584 285.11026185 -35.26987372 283.78149078 C-35.26946721 262.87741544 -35.27903841 241.97335811 -35.29313596 221.06928798 C-35.30750119 199.59870821 -35.31440608 178.12813723 -35.31354219 156.65755254 C-35.31321029 144.60600226 -35.31595432 132.55447087 -35.32672024 120.50292492 C-35.33582711 110.24291804 -35.3379989 99.98293861 -35.33121081 89.72292944 C-35.32794669 84.49009751 -35.32788511 79.25731823 -35.33656406 74.02449131 C-35.34443455 69.22974449 -35.34299199 64.43509205 -35.33427993 59.64034752 C-35.33274617 57.91026601 -35.33455641 56.18017744 -35.34014001 54.45010426 C-35.38976975 37.97492933 -34.6795922 22.85923079 -22.83469486 10.19672108 C-16.50789405 4.29813013 -8.78971426 0.02254623 0 0 Z " fill="#1E1D1B" transform="translate(92.08469486236572,-0.13422107696533203)"/>
<path d="M0 0 C0.91672131 -0.00453111 1.83344263 -0.00906223 2.77794337 -0.01373065 C5.85085377 -0.0263945 8.92358738 -0.02475298 11.996521 -0.02310181 C14.19937875 -0.02908586 16.4022344 -0.03589112 18.60508728 -0.04345703 C24.59075299 -0.06113798 30.57636152 -0.06581333 36.56205082 -0.0670886 C41.55945463 -0.06898746 46.55684512 -0.07634495 51.5542438 -0.08343279 C62.67274914 -0.09879221 73.79123335 -0.10477 84.90974703 -0.10342209 C85.57662951 -0.10334218 86.24351199 -0.10326227 86.93060303 -0.10317993 C87.93215306 -0.10305729 87.93215306 -0.10305729 88.95393643 -0.10293217 C99.76933039 -0.10211967 110.58458496 -0.1212487 121.39993861 -0.14945666 C132.51381835 -0.17821366 143.62764062 -0.19162945 154.74155974 -0.19026911 C160.97763415 -0.18975936 167.21355084 -0.1954497 173.44959259 -0.21662521 C179.31669162 -0.23600351 185.18348246 -0.23613457 191.05059242 -0.22159195 C193.20119744 -0.21950218 195.35182172 -0.22421471 197.50239372 -0.23631287 C200.4442579 -0.25178743 203.38506234 -0.24244217 206.3269043 -0.22705078 C207.17274149 -0.23733791 208.01857869 -0.24762503 208.89004731 -0.25822389 C216.10676062 -0.17510796 221.57317593 2.21527612 227.66741943 5.95492554 C233.25700553 11.69977792 235.48223951 17.53813589 235.53952026 25.49487305 C235.52154388 26.50979828 235.5035675 27.52472351 235.48504639 28.57040405 C235.48577652 29.66411819 235.48650665 30.75783234 235.48725891 31.88468933 C235.48379664 35.47242139 235.44499746 39.05882865 235.40570068 42.64633179 C235.39636778 45.14452912 235.38925393 47.64273565 235.38426208 50.14094543 C235.36717171 56.02700631 235.32783215 61.91258397 235.27751464 67.79844755 C235.21593 75.16367408 235.18924387 82.52896021 235.16156006 89.89437866 C235.10803961 103.01897262 235.02277215 116.14315243 234.91741943 129.26742554 C231.28741943 129.26742554 227.65741943 129.26742554 223.91741943 129.26742554 C223.91155319 128.48117294 223.90568695 127.69492035 223.89964294 126.88484192 C223.84160666 119.45515852 223.76946802 112.02580629 223.68170452 104.59641933 C223.63708181 100.77738516 223.59780831 96.95845566 223.57098389 93.13925171 C223.54486942 89.44968731 223.50441073 85.7605275 223.45423317 82.07121468 C223.43761919 80.66755286 223.42607096 79.26382115 223.41980553 77.860075 C223.41309913 65.75769983 223.41309913 65.75769983 217.60491943 55.51742554 C211.96132073 50.79255221 207.38751085 49.82531937 200.28404236 49.87301636 C199.42771991 49.86692525 198.57139745 49.86083415 197.68912584 49.85455847 C194.82653003 49.83794113 191.96437965 49.8427025 189.10174561 49.84750366 C187.04651935 49.84016254 184.99129723 49.83157619 182.93608093 49.82183838 C177.35746095 49.79961669 171.77898866 49.79669209 166.2003305 49.79858589 C161.54087396 49.79870558 156.88144873 49.79014206 152.2220009 49.78180838 C141.22714196 49.76257141 130.23235895 49.75969135 119.23748779 49.76644897 C107.90166016 49.77308811 96.56615806 49.75023101 85.23039645 49.71313524 C75.49261672 49.68242711 65.75494164 49.6710795 56.01711446 49.67497206 C50.20355731 49.67703862 44.3902534 49.67157443 38.57674217 49.64707947 C33.1076299 49.62479714 27.63904623 49.62670295 22.16993141 49.64700699 C20.16606866 49.65041452 18.16217023 49.6453391 16.15835571 49.63102341 C3.34977743 49.21154644 3.34977743 49.21154644 -8.43349743 53.51171112 C-14.91766987 60.4151563 -14.65324283 66.84467692 -14.59051514 75.96308899 C-14.59512708 77.36586754 -14.60148197 78.76864125 -14.60942411 80.1714049 C-14.62610073 84.01681177 -14.61787884 87.86182084 -14.60547924 91.70722902 C-14.59642409 95.85797258 -14.61040083 100.00864804 -14.62139893 104.15937805 C-14.63918425 112.2872499 -14.63534398 120.41497398 -14.62374836 128.54285162 C-14.61471375 135.14922687 -14.61349017 141.75556072 -14.61784363 148.36194038 C-14.61845656 149.30230499 -14.61906949 150.2426696 -14.619701 151.21153011 C-14.62097991 153.12189353 -14.62227676 155.03225694 -14.62359136 156.94262034 C-14.63499736 174.85598046 -14.62188347 192.7692587 -14.6003899 210.68260539 C-14.58252181 226.05003112 -14.5856206 241.41733598 -14.60406494 256.78475952 C-14.62547632 274.63259498 -14.63389566 292.48035866 -14.62161589 310.32820517 C-14.6203417 312.23183508 -14.61908422 314.13546499 -14.61784363 316.03909492 C-14.61691797 317.44400524 -14.61691797 317.44400524 -14.61597362 318.87729759 C-14.61252131 325.47452532 -14.61834657 332.07170748 -14.62776184 338.66892815 C-14.63898629 346.71058874 -14.63593251 354.75209318 -14.61463886 362.79373591 C-14.60413399 366.89602783 -14.59999688 370.9980595 -14.61323547 375.10034943 C-14.62517722 378.8576461 -14.61856793 382.61444192 -14.59732527 386.37169332 C-14.59075866 388.37064637 -14.60377948 390.36963434 -14.61755419 392.36855072 C-14.55567418 399.46340809 -14.01335874 404.28218703 -10.08258057 410.26742554 C-4.30011248 414.86979809 0.2859942 415.42104341 7.45623779 415.44442749 C8.32807205 415.45099869 9.19990631 415.45756989 10.09815979 415.46434021 C12.98452845 415.48405926 15.87084519 415.49573069 18.75726318 415.50570679 C19.74244997 415.50978231 20.72763676 415.51385784 21.74267769 415.51805687 C26.95383622 415.53890837 32.16496845 415.55321594 37.37615967 415.56259155 C42.7645259 415.57367391 48.15248121 415.60809749 53.54070187 415.64776325 C57.67992435 415.67386947 61.81904784 415.68227788 65.95834541 415.68587303 C67.94511259 415.69075194 69.93187498 415.70240283 71.91856194 415.72091103 C74.69577852 415.74518244 77.47191703 415.74435991 80.24920654 415.73739624 C81.07167877 415.7502063 81.894151 415.76301636 82.74154663 415.7762146 C86.34455364 415.74322752 88.48203721 415.58567717 91.43183899 413.42945862 C93.43771513 410.51021544 93.43409009 408.73649995 92.91741943 405.26742554 C91.67695053 403.54016184 91.67695053 403.54016184 89.91741943 402.26742554 C87.01150843 401.95758422 84.31548267 401.82997105 81.40692139 401.83505249 C80.53841553 401.82486084 79.66990967 401.81466919 78.77508545 401.8041687 C75.9018923 401.77395358 73.02903207 401.76475979 70.15570068 401.75570679 C68.16457504 401.73886641 66.17346006 401.72071705 64.18235779 401.7013092 C58.93974136 401.65373343 53.6971682 401.62397309 48.45440674 401.59786987 C43.10540215 401.56810256 37.75654676 401.52155912 32.40765381 401.47640991 C21.91098693 401.3902906 11.41428942 401.32298371 0.91741943 401.26742554 C-0.33119593 398.77019481 -0.2067863 397.10006094 -0.2056284 394.30488396 C-0.20761944 393.2489164 -0.20961049 392.19294883 -0.21166188 391.10498226 C-0.20874903 389.93574155 -0.20583619 388.76650085 -0.20283508 387.56182861 C-0.20368951 386.32688695 -0.20454393 385.09194529 -0.20542425 383.81958115 C-0.20679106 380.38080351 -0.20364878 376.94208225 -0.19864619 373.5033114 C-0.19434099 369.79915379 -0.19578816 366.09499803 -0.19654846 362.39083862 C-0.19707365 355.96948709 -0.19392736 349.5481457 -0.18831062 343.12679672 C-0.18019496 333.842523 -0.17758034 324.55825418 -0.17632263 315.27397729 C-0.17413222 300.21205752 -0.16747241 285.15014315 -0.15802002 270.08822632 C-0.14884563 255.45411201 -0.14177639 240.81999917 -0.13751221 226.18588257 C-0.13724421 225.27513265 -0.13697621 224.36438273 -0.13670009 223.42603433 C-0.13462076 216.30372145 -0.1326638 209.18140854 -0.13074553 202.05909562 C-0.12130622 167.12853397 -0.10118925 132.19798584 -0.08258057 97.26742554 C68.88741943 97.26742554 137.85741943 97.26742554 208.91741943 97.26742554 C208.91741943 108.15742554 208.91741943 119.04742554 208.91741943 130.26742554 C203.56716553 130.27153442 198.21691162 130.27564331 192.70452881 130.27987671 C175.0385953 130.29706455 157.37280628 130.34129814 139.70696259 130.39951611 C128.99486519 130.43415621 118.28289634 130.45952035 107.57073975 130.46298218 C98.23305182 130.46602342 88.8955929 130.48653558 79.55799341 130.52795011 C74.61461395 130.54926713 69.67155997 130.56188733 64.72813416 130.55357933 C60.0724088 130.54603105 55.41734247 130.56189358 50.76173782 130.59548569 C49.05580716 130.60370958 47.34981084 130.60347994 45.64388657 130.59402275 C34.50635889 130.30793919 34.50635889 130.30793919 24.45166779 134.51326466 C19.75683622 139.88103309 18.32362652 144.40628845 18.40948486 151.45832825 C18.4032449 152.2549574 18.39700494 153.05158656 18.39057589 153.872356 C18.37469124 156.52705695 18.38723205 159.18083391 18.39984131 161.83554077 C18.39441813 163.7447564 18.38729436 165.65396785 18.37860107 167.56317139 C18.36038697 172.73885344 18.36742775 177.91421605 18.38011742 183.08990359 C18.39025641 188.511396 18.38084909 193.93286136 18.37457275 199.35435486 C18.36729836 208.45929871 18.37687798 217.56411273 18.39593506 226.66903687 C18.41769681 237.18747509 18.41065658 247.70560308 18.38862944 258.22403377 C18.37046175 267.26204403 18.36792403 276.29996104 18.37838411 285.33798367 C18.38461233 290.7328198 18.38547322 296.12751025 18.37223816 301.52233696 C18.36066066 306.59581733 18.36874027 311.66889887 18.39181519 316.74233627 C18.39709239 318.60147884 18.39560547 320.46065513 18.38676453 322.31978416 C18.37578591 324.8634849 18.38959973 327.40591855 18.40948486 329.94953918 C18.40056198 330.68019653 18.39163909 331.41085388 18.38244581 332.16365236 C18.47332644 338.18293111 20.24537512 343.51577928 24.50571346 347.90303588 C30.89729218 353.24316671 40.33275793 351.97027179 48.16546631 351.92684937 C49.92033016 351.93530916 51.67518463 351.94595628 53.43002319 351.95861816 C58.1774635 351.98670718 62.92445109 351.98430304 67.67194939 351.97632432 C72.63946031 351.97319466 77.60682821 351.99824707 82.57427979 352.02027893 C91.97343693 352.05770042 101.37244939 352.06986581 110.77167368 352.07290334 C121.47547365 352.07759621 132.17912888 352.11052692 142.88286495 352.14580119 C164.89436666 352.21770916 186.90580935 352.25424824 208.91741943 352.26742554 C208.96801103 358.92429367 209.00310703 365.58111248 209.02728271 372.23812866 C209.03735802 374.50409803 209.05101862 376.77005434 209.06829834 379.03598022 C209.09247954 382.28764054 209.10388706 385.53912941 209.11273193 388.79086304 C209.12821579 390.31748062 209.12821579 390.31748062 209.14401245 391.87493896 C209.14416351 392.81576324 209.14431458 393.75658752 209.14447021 394.72592163 C209.14891144 395.55643036 209.15335266 396.38693909 209.15792847 397.24261475 C208.91741943 399.26742554 208.91741943 399.26742554 206.91741943 401.26742554 C204.09760141 401.47467104 201.37388248 401.55790599 198.55218506 401.55453491 C197.68703781 401.56136795 196.82189056 401.56820099 195.93052673 401.57524109 C194.04859526 401.58885013 192.16662658 401.59788987 190.28465271 401.60295105 C187.30977361 401.61121413 184.33520534 401.63169404 181.3604126 401.65548706 C173.97207145 401.71200916 166.58365492 401.74714401 159.19519043 401.78311157 C152.95453512 401.81430121 146.71402998 401.85345298 140.47349548 401.90336609 C137.53636713 401.92350278 134.59935357 401.9317678 131.66217041 401.93966675 C129.8689939 401.95263396 128.07582127 401.96615351 126.28265381 401.98031616 C125.04982918 401.97884331 125.04982918 401.97884331 123.792099 401.9773407 C119.38558098 401.84937599 119.38558098 401.84937599 115.91741943 404.26742554 C115.67454455 406.70755502 115.67454455 406.70755502 115.79241943 409.39242554 C115.81046631 410.30250366 115.82851318 411.21258179 115.84710693 412.15023804 C115.87031006 412.84890991 115.89351318 413.54758179 115.91741943 414.26742554 C119.78311903 415.55599207 123.45431166 415.43955061 127.48455811 415.46029663 C128.35972076 415.46847412 129.23488342 415.47665161 130.13656616 415.4850769 C133.03616658 415.50991146 135.93571803 415.52644339 138.83538818 415.54086304 C139.82661493 415.54618671 140.81784168 415.55151039 141.83910561 415.55699539 C147.08728894 415.58372056 152.33544855 415.60309614 157.5836792 415.61752319 C161.92243567 415.6308552 166.26072103 415.65869534 170.5993042 415.69955444 C175.8418224 415.74892527 181.08391368 415.77364998 186.32665443 415.78075027 C188.32129894 415.78745455 190.31593423 415.80265508 192.31044579 415.82664108 C195.10856779 415.85836713 197.90505242 415.8583181 200.70330811 415.85092163 C201.9294709 415.87552963 201.9294709 415.87552963 203.18040466 415.90063477 C209.24311372 415.83533724 213.16416906 413.9964985 217.91741943 410.26742554 C223.50218705 404.496499 223.24415899 396.93795117 223.33148193 389.40023804 C223.35084808 388.36551361 223.37021423 387.33078918 223.39016724 386.26470947 C223.44973786 382.97403087 223.49625848 379.68331686 223.54241943 376.39242554 C223.58061991 374.15543148 223.61967284 371.91845181 223.65960693 369.68148804 C223.755421 364.21025129 223.83953528 358.73894571 223.91741943 353.26742554 C227.54741943 353.26742554 231.17741943 353.26742554 234.91741943 353.26742554 C235.05664549 367.69757994 235.16315611 382.12757366 235.22829247 396.55826378 C235.25915755 403.25958273 235.30195142 409.96041257 235.37005615 416.66146851 C235.43540848 423.13244763 235.47115983 429.60298458 235.48668289 436.07426834 C235.4977405 438.53897687 235.51933364 441.00366211 235.55179977 443.46818161 C235.59557141 446.92962045 235.60134451 450.38924908 235.59857178 453.85092163 C235.62014343 454.86225159 235.64171509 455.87358154 235.66394043 456.91555786 C235.59999583 464.32821296 233.49641098 469.42805728 228.91741943 475.26742554 C222.33875443 481.36330343 215.43057971 482.56654037 206.70785522 482.53485107 C205.78957392 482.53938219 204.87129262 482.5439133 203.92518461 482.54858172 C200.85304613 482.56122598 197.78108493 482.55960533 194.70892334 482.55795288 C192.50429558 482.56393806 190.29966991 482.57074359 188.095047 482.57830811 C182.10950764 482.59597521 176.12402546 482.60066376 170.13846254 482.60193968 C165.1409143 482.60383936 160.14337936 482.61119759 155.14583623 482.61828387 C144.02848757 482.63363784 132.91116145 482.63962155 121.79380353 482.63827316 C120.79393383 482.6381533 120.79393383 482.6381533 119.77386475 482.63803101 C119.10646792 482.63794924 118.43907108 482.63786748 117.75145011 482.63778324 C106.93544421 482.63697034 96.11957757 482.656111 85.30361195 482.68430774 C74.18857537 482.71305475 63.07359623 482.72648101 51.95852029 482.72512019 C45.72193376 482.72461027 39.48550487 482.73031026 33.24895096 482.75147629 C27.38348326 482.77083964 21.51832395 482.77099592 15.65284538 482.75644302 C13.50181948 482.75435156 11.35077437 482.75907584 9.19978142 482.77116394 C6.25980914 482.78661415 3.32090052 482.77730939 0.38095093 482.76190186 C-0.46711699 482.77218898 -1.31518491 482.78247611 -2.18895185 482.79307497 C-9.13994546 482.71275709 -14.32775655 480.71178526 -19.54351807 476.08383179 C-20.490979 474.96814819 -20.490979 474.96814819 -21.45758057 473.82992554 C-22.10468994 473.0887146 -22.75179932 472.34750366 -23.41851807 471.58383179 C-26.85834202 466.79553224 -27.3737633 462.48532667 -27.33984947 456.7091856 C-27.34510858 455.57460493 -27.34510858 455.57460493 -27.35047394 454.41710344 C-27.3598027 451.87402981 -27.35486084 449.33118444 -27.3500061 446.7881012 C-27.35374162 444.9498246 -27.35834274 443.11154959 -27.36373675 441.2732771 C-27.37599435 436.21489869 -27.37570303 431.15658627 -27.373348 426.09819639 C-27.37294053 420.6454455 -27.38397228 415.19271596 -27.39346313 409.73997498 C-27.41008917 399.054461 -27.4155734 388.36896909 -27.41668789 377.68344327 C-27.41763759 368.99941646 -27.42174399 360.31539695 -27.42808914 351.63137245 C-27.44570582 327.02089743 -27.45493947 302.41043885 -27.45342819 277.7999576 C-27.4533883 277.13656778 -27.45334841 276.47317797 -27.45330731 275.78968543 C-27.45322644 274.44814933 -27.45314284 273.10661322 -27.45305653 271.76507711 C-27.45183101 250.89270381 -27.46684405 230.02039548 -27.49420166 209.14804077 C-27.52492187 185.70051601 -27.54210885 162.25302688 -27.54027522 138.80547982 C-27.53961068 126.38956363 -27.54513063 113.9737207 -27.56663132 101.55782127 C-27.58481888 90.98722953 -27.58921038 80.41674428 -27.57561247 69.84614369 C-27.56907063 64.45175848 -27.56900954 59.05757773 -27.58631897 53.66321182 C-27.60200086 48.72532205 -27.59923603 43.78779967 -27.58175071 38.84991912 C-27.57867004 37.0632608 -27.58235319 35.27657539 -27.59347086 33.48994901 C-27.6981844 15.46926886 -27.6981844 15.46926886 -20.89898682 7.80648804 C-19.78330322 6.8590271 -19.78330322 6.8590271 -18.64508057 5.89242554 C-17.90386963 5.24531616 -17.16265869 4.59820679 -16.39898682 3.93148804 C-11.06421171 0.09908636 -6.34826041 -0.02300278 0 0 Z " fill="#685C66" transform="translate(100.08258056640625,14.732574462890625)"/>
<path d="M0 0 C0.95177628 -0.02146591 1.90355255 -0.04293182 2.88417053 -0.06504822 C3.92680054 -0.07311493 4.96943054 -0.08118164 6.0436554 -0.0894928 C7.14315018 -0.10920639 8.24264496 -0.12891998 9.37545776 -0.14923096 C13.02178028 -0.20846398 16.66773192 -0.2434242 20.31440735 -0.27333069 C21.55938303 -0.28555727 22.80435871 -0.29778385 24.08706093 -0.31038094 C29.99771041 -0.3665236 35.908242 -0.41021501 41.81909341 -0.43521684 C48.63081594 -0.46450851 55.43960657 -0.54338085 62.25029629 -0.66471952 C68.15821537 -0.7663413 74.06542178 -0.80166918 79.97423744 -0.81382942 C82.48259672 -0.82843818 84.99092382 -0.86331494 87.49870872 -0.91894341 C106.64154994 -1.31715566 106.64154994 -1.31715566 111.17255783 1.60854149 C114.30471232 4.72774949 115.80400118 8.3842908 117.3651886 12.44151306 C118.38564108 13.97787625 119.44535034 15.49012258 120.5683136 16.95323181 C121.06718079 17.63901306 121.56604797 18.32479431 122.08003235 19.03135681 C122.58663391 19.72358337 123.09323547 20.41580994 123.6151886 21.12901306 C127.91010451 27.03577387 132.16654204 32.96592686 136.3651886 38.94151306 C140.44535012 44.74557304 144.57386551 50.51151473 148.7401886 56.25401306 C153.95061636 63.43865566 159.05499801 70.69238793 164.12983704 77.97325134 C168.55936372 84.31748459 173.06751056 90.60064719 177.61128235 96.86338806 C181.23497414 101.86249571 184.81416744 106.89056206 188.3651886 111.94151306 C192.48905127 117.80642623 196.65844366 123.63576781 200.8651886 129.44151306 C207.60867101 138.75126796 214.23353797 148.14203642 220.84468079 157.54600525 C222.32977972 159.65764559 223.81603473 161.7684672 225.3026886 163.87901306 C225.78648987 164.56688904 226.27029114 165.25476501 226.76875305 165.96348572 C229.48387153 169.81336729 232.22972927 173.63816363 235.00971985 177.44151306 C235.61114807 178.2659491 236.21257629 179.09038513 236.83222961 179.93980408 C238.00170111 181.53972051 239.17523523 183.13667693 240.35322571 184.73033142 C240.87795471 185.4484198 241.40268372 186.16650818 241.9433136 186.90635681 C242.41156555 187.54178406 242.8798175 188.1772113 243.36225891 188.83189392 C244.3651886 190.44151306 244.3651886 190.44151306 244.3651886 192.44151306 C245.0251886 192.44151306 245.6851886 192.44151306 246.3651886 192.44151306 C246.3651886 193.10151306 246.3651886 193.76151306 246.3651886 194.44151306 C214.44034909 194.50990694 182.51553036 194.56301937 150.59063474 194.59470905 C146.82416104 194.5984613 143.05768748 194.60234426 139.29121399 194.60630798 C138.54135661 194.60709491 137.79149924 194.60788185 137.01891891 194.60869262 C124.86708658 194.62175716 112.7152967 194.64541675 100.56348958 194.67297145 C88.10057098 194.70099654 75.63767465 194.71768317 63.17472583 194.72377855 C55.48042571 194.72790102 47.78624555 194.74093531 40.09198234 194.76526246 C34.19840133 194.78295051 28.30488235 194.78488602 22.41127396 194.78083611 C19.98885292 194.78166449 17.56642752 194.78767206 15.14403343 194.79912949 C11.84747972 194.81396254 8.55144753 194.81050018 5.25488281 194.80227661 C4.28699331 194.81101514 3.31910382 194.81975366 2.32188433 194.82875699 C1.00142618 194.81979727 1.00142618 194.81979727 -0.34570789 194.81065655 C-1.10704716 194.81179571 -1.86838642 194.81293487 -2.65279657 194.81410855 C-5.20999481 194.33338534 -6.09170644 193.50998065 -7.6348114 191.44151306 C-7.92944396 188.86855158 -8.03965904 186.53728807 -8.01576233 183.96372986 C-8.0204423 183.19557544 -8.02512227 182.42742102 -8.02994406 181.63598919 C-8.0419397 179.0540627 -8.03241921 176.47266253 -8.022995 173.89073181 C-8.02705867 172.0429605 -8.0323994 170.19519162 -8.03892517 168.34742737 C-8.05262882 163.32271011 -8.04728756 158.29817715 -8.03778791 153.27345657 C-8.03020709 148.02177168 -8.03723253 142.77010285 -8.04194641 137.51841736 C-8.04740857 128.69815733 -8.04020028 119.8779726 -8.02592468 111.057724 C-8.0095973 100.85173477 -8.01488549 90.64592532 -8.0314039 80.43994045 C-8.04500566 71.68659899 -8.04694485 62.93331173 -8.03908789 54.17996311 C-8.03440416 48.9478924 -8.03380571 43.71590626 -8.04369736 38.48384094 C-8.05234569 33.56561721 -8.04638424 28.64762589 -8.02901459 23.72942734 C-8.02503831 21.92139955 -8.02620319 20.1133523 -8.03280258 18.30533218 C-8.04096332 15.84305365 -8.03076344 13.38152652 -8.01576233 10.91929626 C-8.02245449 10.19858287 -8.02914666 9.47786947 -8.03604162 8.73531628 C-8.00268058 5.92510376 -7.93049446 3.90625704 -6.40067768 1.50174618 C-4.13908962 0.14387974 -2.63637714 0.0408444 0 0 Z " fill="#FE4655" transform="translate(140.6348114013672,158.55848693847656)"/>
<path d="M0 0 C68.97 0 137.94 0 209 0 C209 10.89 209 21.78 209 33 C203.64974609 33.00410889 198.29949219 33.00821777 192.78710938 33.01245117 C175.12117586 33.02963901 157.45538685 33.0738726 139.78954315 33.13209057 C129.07744575 33.16673068 118.36547691 33.19209482 107.65332031 33.19555664 C98.31563238 33.19859788 88.97817346 33.21911004 79.64057398 33.26052457 C74.69719452 33.28184159 69.75414054 33.2944618 64.81071472 33.28615379 C60.15498936 33.27860552 55.49992304 33.29446805 50.84431839 33.32806015 C49.13838772 33.33628405 47.43239141 33.3360544 45.72646713 33.32659721 C34.58893945 33.04051365 34.58893945 33.04051365 24.53424835 37.24583912 C19.83941679 42.61360755 18.40620709 47.13886291 18.49206543 54.19090271 C18.48582547 54.98753187 18.4795855 55.78416103 18.47315645 56.60493046 C18.45727181 59.25963141 18.46981262 61.91340837 18.48242188 64.56811523 C18.47699869 66.47733086 18.46987493 68.38654231 18.46118164 70.29574585 C18.44296754 75.4714279 18.45000832 80.64679052 18.46269798 85.82247806 C18.47283698 91.24397046 18.46342966 96.66543582 18.45715332 102.08692932 C18.44987893 111.19187318 18.45945855 120.29668719 18.47851562 129.40161133 C18.50027737 139.92004955 18.49323714 150.43817755 18.47121 160.95660824 C18.45304232 169.9946185 18.45050459 179.0325355 18.46096468 188.07055813 C18.4671929 193.46539426 18.46805378 198.86008472 18.45481873 204.25491142 C18.44324123 209.32839179 18.45132084 214.40147333 18.47439575 219.47491074 C18.47967295 221.33405331 18.47818603 223.19322959 18.46934509 225.05235863 C18.45836648 227.59605936 18.4721803 230.13849301 18.49206543 232.68211365 C18.48314254 233.412771 18.47421966 234.14342834 18.46502638 234.89622682 C18.55590701 240.91550558 20.32795569 246.24835375 24.58829403 250.63561034 C30.97987274 255.97574117 40.4153385 254.70284625 48.24804688 254.65942383 C50.00291073 254.66788362 51.75776519 254.67853074 53.51260376 254.69119263 C58.26004407 254.71928164 63.00703166 254.71687751 67.75452995 254.70889878 C72.72204088 254.70576913 77.68940878 254.73082154 82.65686035 254.75285339 C92.05601749 254.79027489 101.45502996 254.80244027 110.85425425 254.8054778 C121.55805422 254.81017067 132.26170945 254.84310138 142.96544552 254.87837565 C164.97694723 254.95028363 186.98838991 254.9868227 209 255 C209.0505916 261.65686814 209.0856876 268.31368694 209.10986328 274.97070312 C209.11993859 277.23667249 209.13359918 279.50262881 209.15087891 281.76855469 C209.17506011 285.02021501 209.18646763 288.27170387 209.1953125 291.5234375 C209.21079636 293.05005508 209.21079636 293.05005508 209.22659302 294.60751343 C209.22674408 295.54833771 209.22689514 296.48916199 209.22705078 297.45849609 C209.231492 298.28900482 209.23593323 299.11951355 209.24050903 299.97518921 C209 302 209 302 207 304 C204.1896011 304.18626965 201.47718103 304.24857674 198.66650391 304.22363281 C197.37360191 304.22424461 197.37360191 304.22424461 196.05458069 304.22486877 C194.17917108 304.22506663 192.3037574 304.22101461 190.4283638 304.21326447 C187.46132677 304.20307267 184.494712 304.2083993 181.52767944 304.21868896 C173.09064361 304.24672335 164.6538439 304.25912315 156.21679688 304.22998047 C151.0595318 304.21327977 145.90302038 304.22552329 140.74583054 304.25643158 C138.77863256 304.26254815 136.81136861 304.25763345 134.84422684 304.24155426 C132.09273445 304.22000585 129.34370813 304.23520832 126.59228516 304.25878906 C125.77759262 304.24342606 124.96290009 304.22806305 124.1235199 304.2122345 C121.56609755 304.19365415 121.56609755 304.19365415 118 305 C115.55053219 307.87741304 115.55053219 307.87741304 114 311 C111.75756836 311.76049805 111.75756836 311.76049805 109.33984375 311.76171875 C108.46392578 311.76494141 107.58800781 311.76816406 106.68554688 311.77148438 C105.32526367 311.72991211 105.32526367 311.72991211 103.9375 311.6875 C102.57141602 311.70973633 102.57141602 311.70973633 101.17773438 311.73242188 C98.66772497 311.70097739 96.43808495 311.5998141 94 311 C91.94140625 308.51953125 91.94140625 308.51953125 91 306 C88.93968092 303.93968092 84.55412835 304.81438707 81.71655273 304.79467773 C80.84833893 304.78477814 79.98012512 304.77487854 79.08560181 304.76467896 C76.20162733 304.73296632 73.31763635 304.70826812 70.43359375 304.68359375 C68.43961649 304.66303264 66.44564368 304.6420364 64.45167542 304.62062073 C59.19259224 304.56531293 53.93346917 304.5159422 48.67431641 304.46777344 C43.31213818 304.41762182 37.95001819 304.36190274 32.58789062 304.30664062 C22.05864345 304.19895262 11.5293458 304.09753144 1 304 C-0.24861536 301.50276927 -0.12420573 299.8326354 -0.12304783 297.03745842 C-0.12503888 295.98149086 -0.12702993 294.9255233 -0.12908131 293.83755672 C-0.12616847 292.66831602 -0.12325563 291.49907531 -0.12025452 290.29440308 C-0.12110894 289.05946141 -0.12196337 287.82451975 -0.12284368 286.55215561 C-0.12421049 283.11337797 -0.12106821 279.67465671 -0.11606562 276.23588586 C-0.11176042 272.53172825 -0.1132076 268.82757249 -0.1139679 265.12341309 C-0.11449309 258.70206156 -0.11134679 252.28072016 -0.10573006 245.85937119 C-0.0976144 236.57509746 -0.09499977 227.29082865 -0.09374207 218.00655176 C-0.09155165 202.94463198 -0.08489185 187.88271762 -0.07543945 172.82080078 C-0.06626507 158.18668647 -0.05919582 143.55257363 -0.05493164 128.91845703 C-0.05466364 128.00770711 -0.05439565 127.09695719 -0.05411953 126.15860879 C-0.05204019 119.03629592 -0.05008324 111.91398301 -0.04816496 104.79167008 C-0.03872565 69.86110843 -0.01860868 34.9305603 0 0 Z " fill="#DBE7F6" transform="translate(100,112)"/>
<path d="M0 0 C21.86992804 -0.04666651 43.73984791 -0.08196255 65.6098156 -0.10362434 C75.76381975 -0.11394845 85.91779301 -0.12803037 96.07177734 -0.15087891 C104.91928061 -0.17077815 113.76676152 -0.18370818 122.61428654 -0.18817699 C127.30142746 -0.19079026 131.98850439 -0.19695599 136.67562485 -0.21146011 C141.08322122 -0.22498934 145.49072697 -0.22923214 149.89834213 -0.22621536 C151.5197397 -0.22676762 153.14114016 -0.23077273 154.76251984 -0.23841095 C156.96897999 -0.24829949 159.17509382 -0.24599147 161.38156128 -0.24050903 C163.23713056 -0.24327441 163.23713056 -0.24327441 165.13018608 -0.24609566 C168 0 168 0 170 2 C170.19652486 4.62854086 170.26959069 7.15313099 170.25537109 9.78271484 C170.26080177 10.9878347 170.26080177 10.9878347 170.26634216 12.21730042 C170.27324508 13.96500893 170.27573993 15.71273904 170.27439499 17.46046066 C170.2734323 20.22587493 170.28634127 22.99089774 170.30337524 25.7562561 C170.34972609 33.61969961 170.37425688 41.48310436 170.38085938 49.34667969 C170.38586946 54.15372192 170.41009543 58.96035705 170.44618607 63.76726151 C170.45599763 65.60046573 170.45830863 67.43372587 170.45301437 69.2669487 C170.44595701 71.83124124 170.46319813 74.39431844 170.48583984 76.95849609 C170.47766739 77.7170842 170.46949493 78.4756723 170.46107483 79.25724792 C170.51546391 82.7161597 170.73123019 84.64446973 172.84463501 87.44009399 C175.00627821 89.16877698 175.00627821 89.16877698 178 90 C178 96.6 178 103.2 178 110 C175.525 110.99 175.525 110.99 173 112 C170.56959764 114.43040236 170.75284783 115.73192529 170.70991516 119.04968262 C170.71138802 120.10016785 170.71138802 120.10016785 170.71289062 121.171875 C170.70605759 121.91022583 170.69922455 122.64857666 170.69218445 123.40930176 C170.67858095 125.01457668 170.66953763 126.61989515 170.66447449 128.22521973 C170.65620681 130.7632571 170.63572293 133.30093092 170.61193848 135.83886719 C170.56364778 141.22585778 170.53074455 146.61288441 170.5 152 C170.46438298 158.24087879 170.42254473 164.48158001 170.36405945 170.72229004 C170.34393224 173.22731839 170.33565977 175.73221216 170.32775879 178.23730469 C170.31479083 179.76758317 170.30127118 181.2978571 170.28710938 182.828125 C170.28858223 183.87861023 170.28858223 183.87861023 170.29008484 184.95031738 C170.22768692 189.77231308 170.22768692 189.77231308 168 192 C163.55407623 192.56458444 159.09353054 192.62743328 154.61669922 192.70019531 C153.13233406 192.73317402 151.64827754 192.78758079 150.16552734 192.86425781 C137.97023003 193.49105522 137.97023003 193.49105522 133.41210938 190.04150391 C131.32203983 187.46784377 129.65374511 184.87088125 128 182 C126.94212001 180.46972132 125.87480423 178.94591027 124.796875 177.4296875 C123.77819391 175.91350717 122.76262754 174.39523005 121.75 172.875 C117.60671236 166.73269408 113.36355647 160.7073487 108.875 154.8125 C104.47671253 149.03226243 100.29394961 143.14488788 96.2121582 137.13769531 C92.21724872 131.27326797 88.07533553 125.52334469 83.90649414 119.78173828 C80.23083843 114.71542601 76.59914111 109.62091763 73 104.5 C68.91975366 98.69599887 64.79132403 92.92999963 60.625 87.1875 C55.41457223 80.0028574 50.31019059 72.74912513 45.23535156 65.46826172 C40.80582488 59.12402847 36.29767804 52.84086587 31.75390625 46.578125 C27.63315286 40.89329004 23.57315777 35.16812768 19.54101562 29.42016602 C16.87202882 25.62359432 14.17204458 21.85337837 11.4296875 18.109375 C10.83671875 17.29791016 10.24375 16.48644531 9.6328125 15.65039062 C8.48897542 14.08841755 7.34075833 12.52963941 6.1875 10.97460938 C5.66929687 10.26626953 5.15109375 9.55792969 4.6171875 8.828125 C4.15940918 8.2084082 3.70163086 7.58869141 3.22998047 6.95019531 C1.82634223 4.72465696 0.9504358 2.4484664 0 0 Z " fill="#FE646E" transform="translate(269,160)"/>
<path d="M0 0 C1.18094238 0.00253784 1.18094238 0.00253784 2.38574219 0.00512695 C9.72928604 0.22927146 15.22052324 2.44203675 21.3125 6.5625 C21.92351562 6.95695313 22.53453125 7.35140625 23.1640625 7.7578125 C29.2352412 12.21001021 33.42824222 19.38683338 35.3125 26.5625 C35.65527603 29.46326891 35.74015135 32.33049186 35.75 35.25 C35.75386719 36.04003418 35.75773437 36.83006836 35.76171875 37.64404297 C35.62858367 44.43531874 33.89672632 49.75093304 30.3125 55.5625 C31.68921875 56.18125 31.68921875 56.18125 33.09375 56.8125 C44.67733603 62.18828171 52.61303358 68.19866773 57.3125 80.5625 C58.37047235 84.78062485 58.4892142 88.91726306 58.515625 93.2421875 C58.52132507 93.97317657 58.52702515 94.70416565 58.53289795 95.45730591 C58.54231088 96.9987037 58.54886712 98.54012128 58.55273438 100.08154297 C58.56244078 102.42321285 58.59349827 104.76400439 58.625 107.10546875 C58.6315313 108.60936984 58.63678127 110.11327714 58.640625 111.6171875 C58.6591452 112.65502884 58.6591452 112.65502884 58.67803955 113.71383667 C58.65511325 118.78662589 57.60307655 122.13318175 55.3125 126.5625 C49.56380247 132.15991602 44.16227178 132.86147398 36.50244141 132.85302734 C35.6253804 132.85974457 34.7483194 132.86646179 33.84468079 132.87338257 C30.95108341 132.8923492 28.05771813 132.89628604 25.1640625 132.8984375 C23.14773463 132.90486615 21.1314077 132.91159456 19.11508179 132.91860962 C14.89017576 132.9305789 10.66535147 132.93429078 6.44042969 132.93310547 C1.03444937 132.93290226 -4.3710054 132.96020864 -9.77686119 132.99464989 C-13.94109491 133.01691844 -18.10520212 133.02094303 -22.26948929 133.01988602 C-24.26214027 133.02224187 -26.25479474 133.03106451 -28.24738693 133.04655075 C-31.03818021 133.06621045 -33.82783967 133.06037285 -36.61865234 133.04833984 C-37.43654739 133.05957886 -38.25444244 133.07081787 -39.09712219 133.08239746 C-44.75535566 133.02059857 -48.01546801 131.78553073 -52.6875 128.5625 C-57.68058448 123.3066216 -57.85284165 118.91722443 -57.92578125 111.90234375 C-57.933853 111.15723038 -57.94192474 110.412117 -57.95024109 109.64442444 C-57.96404994 108.06676535 -57.97478636 106.48907679 -57.98266602 104.91137695 C-57.99413257 103.31623425 -58.01449921 101.72112829 -58.04418945 100.1262207 C-58.29870425 86.43503068 -57.12167023 76.09606943 -47.1953125 65.79296875 C-41.96659459 61.14250469 -36.19028683 58.052929 -29.6875 55.5625 C-30.0484375 54.97726563 -30.409375 54.39203125 -30.78125 53.7890625 C-35.80486848 44.4953683 -36.47764425 33.92309314 -33.98828125 23.6875 C-33.06853343 21.45216351 -32.02781127 19.57087919 -30.6875 17.5625 C-30.26339844 16.87027344 -29.83929688 16.17804688 -29.40234375 15.46484375 C-22.75217067 5.55441869 -11.83602804 -0.03674998 0 0 Z " fill="#201E1D" transform="translate(218.6875,190.4375)"/>
<path d="M0 0 C2.97 1.65 5.94 3.3 9 5 C12.88121122 5.73499124 12.88121122 5.73499124 16.83985901 5.63923645 C17.94170222 5.65176996 17.94170222 5.65176996 19.0658049 5.66455668 C21.49822679 5.68629804 23.92911118 5.67293918 26.36157227 5.65942383 C28.11658361 5.66788569 29.87158556 5.67853376 31.62657166 5.69119263 C36.36982095 5.71925515 41.11261671 5.71688222 45.85592389 5.70889878 C50.82075958 5.70576686 55.78545255 5.73082814 60.75022888 5.75285339 C70.14226956 5.79025891 79.53416546 5.80243932 88.92627329 5.8054778 C99.62284144 5.81017241 110.31926489 5.84310868 121.01576912 5.87837565 C143.01049631 5.95026294 165.00516441 5.9868194 187 6 C187.0505916 12.65686814 187.0856876 19.31368694 187.10986328 25.97070312 C187.11993859 28.23667249 187.13359918 30.50262881 187.15087891 32.76855469 C187.17506011 36.02021501 187.18646763 39.27170387 187.1953125 42.5234375 C187.20563507 43.54118256 187.21595764 44.55892761 187.22659302 45.60751343 C187.22674408 46.54833771 187.22689514 47.48916199 187.22705078 48.45849609 C187.231492 49.28900482 187.23593323 50.11951355 187.24050903 50.97518921 C187 53 187 53 185 55 C182.1896011 55.18626965 179.47718103 55.24857674 176.66650391 55.22363281 C175.37360191 55.22424461 175.37360191 55.22424461 174.05458069 55.22486877 C172.17917108 55.22506663 170.3037574 55.22101461 168.4283638 55.21326447 C165.46132677 55.20307267 162.494712 55.2083993 159.52767944 55.21868896 C151.09064361 55.24672335 142.6538439 55.25912315 134.21679688 55.22998047 C129.0595318 55.21327977 123.90302038 55.22552329 118.74583054 55.25643158 C116.77863256 55.26254815 114.81136861 55.25763345 112.84422684 55.24155426 C110.09273445 55.22000585 107.34370813 55.23520832 104.59228516 55.25878906 C103.77759262 55.24342606 102.96290009 55.22806305 102.1235199 55.2122345 C99.56609755 55.19365415 99.56609755 55.19365415 96 56 C93.55053219 58.87741304 93.55053219 58.87741304 92 62 C89.75756836 62.76049805 89.75756836 62.76049805 87.33984375 62.76171875 C86.46392578 62.76494141 85.58800781 62.76816406 84.68554688 62.77148438 C83.77869141 62.74376953 82.87183594 62.71605469 81.9375 62.6875 C81.02677734 62.70232422 80.11605469 62.71714844 79.17773438 62.73242188 C76.66953677 62.70100009 74.43687498 62.59715357 72 62 C70.06640625 59.58203125 70.06640625 59.58203125 69 57 C65.43628654 54.62419103 63.83390187 54.72953031 59.60083008 54.68115234 C58.63456947 54.66608391 58.63456947 54.66608391 57.64878845 54.65071106 C55.52237835 54.61985295 53.3960943 54.60283707 51.26953125 54.5859375 C49.79407159 54.56722791 48.31862265 54.54765466 46.84318542 54.5272522 C42.96182575 54.47590264 39.08043137 54.43629219 35.19891357 54.39910889 C30.54068979 54.3520489 25.88263856 54.29043902 21.22455597 54.23126221 C14.14977352 54.14301545 7.07502472 54.07327635 0 54 C0 36.18 0 18.36 0 0 Z " fill="#DCE8F6" transform="translate(122,361)"/>
<path d="M0 0 C1.25425781 0.01804687 2.50851563 0.03609375 3.80078125 0.0546875 C5.22970703 0.08949219 5.22970703 0.08949219 6.6875 0.125 C5.96433594 1.22908203 5.96433594 1.22908203 5.2265625 2.35546875 C4.59492187 3.33128906 3.96328125 4.30710937 3.3125 5.3125 C2.37277344 6.75689453 2.37277344 6.75689453 1.4140625 8.23046875 C-1.85238041 13.70656421 -2.58559282 18.04846351 -2.55078125 24.3828125 C-2.56618853 25.99349813 -2.58249123 27.6041754 -2.59960938 29.21484375 C-2.61611479 31.74091096 -2.62495443 34.26636329 -2.61791992 36.79248047 C-2.61530763 39.23996095 -2.6433435 41.68558032 -2.67578125 44.1328125 C-2.66557449 44.88909943 -2.65536774 45.64538635 -2.64485168 46.42459106 C-2.68481445 48.55908203 -2.68481445 48.55908203 -3.3125 52.125 C-5.60229492 53.68701172 -5.60229492 53.68701172 -8.3125 55.125 C-13.33896473 61.55349875 -12.87486015 67.90908858 -12.82043457 75.82066345 C-12.82504652 77.223442 -12.83140141 78.62621571 -12.83934355 80.02897936 C-12.85602016 83.87438623 -12.84779827 87.7193953 -12.83539867 91.56480348 C-12.82634352 95.71554705 -12.84032027 99.8662225 -12.85131836 104.01695251 C-12.86910369 112.14482436 -12.86526341 120.27254845 -12.8536678 128.40042608 C-12.84463318 135.00680134 -12.8434096 141.61313519 -12.84776306 148.21951485 C-12.84837599 149.15987946 -12.84898893 150.10024406 -12.84962043 151.06910457 C-12.85089934 152.979468 -12.85219619 154.88983141 -12.8535108 156.80019481 C-12.8649168 174.71355493 -12.8518029 192.62683317 -12.83030933 210.54017986 C-12.81244125 225.90760559 -12.81554003 241.27491044 -12.83398438 256.64233398 C-12.85539575 274.49016944 -12.86381509 292.33793312 -12.85153532 310.18577963 C-12.85026113 312.08940954 -12.84900365 313.99303946 -12.84776306 315.89666939 C-12.84683741 317.30157971 -12.84683741 317.30157971 -12.84589306 318.73487205 C-12.84244074 325.33209978 -12.84826601 331.92928194 -12.85768127 338.52650261 C-12.86890573 346.56816321 -12.86585195 354.60966765 -12.8445583 362.65131038 C-12.83405342 366.75360229 -12.82991632 370.85563396 -12.84315491 374.95792389 C-12.85509665 378.71522056 -12.84848737 382.47201638 -12.8272447 386.22926778 C-12.8206781 388.22822084 -12.83369892 390.2272088 -12.84747362 392.22612518 C-12.78579272 399.29815469 -12.28322711 404.17962754 -8.3125 410.125 C-7.24918457 410.71909668 -6.18586914 411.31319336 -5.09033203 411.92529297 C-2.3125 414.125 -2.3125 414.125 -1.8192749 416.36236572 C-1.68276744 419.36747135 -1.74420404 422.31454657 -1.8671875 425.3203125 C-1.88516388 426.42293427 -1.90314026 427.52555603 -1.92166138 428.66159058 C-1.98174761 432.19233515 -2.08119731 435.7203659 -2.1875 439.25 C-2.28349831 442.75803862 -2.37026481 446.26532125 -2.43191528 449.7741394 C-2.47107274 451.95619143 -2.52992059 454.13801082 -2.61178589 456.31887817 C-2.8131996 466.63511751 0.39488068 474.08443087 6.6875 482.125 C-9.37415617 482.93710621 -9.37415617 482.93710621 -15.3125 478.125 C-20.72418646 472.94524296 -25.00276062 468.37511006 -25.56549966 460.65344781 C-25.57709357 459.29126715 -25.57776692 457.92896657 -25.56976891 456.56676006 C-25.57502802 455.43217939 -25.57502802 455.43217939 -25.58039337 454.2746779 C-25.58972214 451.73160427 -25.58478027 449.18875891 -25.57992554 446.64567566 C-25.58366105 444.80739906 -25.58826218 442.96912405 -25.59365618 441.13085157 C-25.60591378 436.07247315 -25.60562247 431.01416074 -25.60326743 425.95577085 C-25.60285996 420.50301996 -25.61389171 415.05029043 -25.62338257 409.59754944 C-25.6400086 398.91203547 -25.64549284 388.22654356 -25.64660732 377.54101773 C-25.64755703 368.85699093 -25.65166342 360.17297141 -25.65800858 351.48894691 C-25.67562525 326.87847189 -25.6848589 302.26801331 -25.68334763 277.65753206 C-25.68330774 276.99414225 -25.68326785 276.33075243 -25.68322675 275.6472599 C-25.68314587 274.30572379 -25.68306228 272.96418768 -25.68297596 271.62265157 C-25.68175044 250.75027827 -25.69676349 229.87796994 -25.72412109 209.00561523 C-25.7548413 185.55809047 -25.77202829 162.11060134 -25.77019465 138.66305429 C-25.76953012 126.24713809 -25.77505006 113.83129517 -25.79655075 101.41539574 C-25.81473831 90.84480399 -25.81912982 80.27431874 -25.8055319 69.70371815 C-25.79899007 64.30933294 -25.79892898 58.91515219 -25.8162384 53.52078629 C-25.83192029 48.58289651 -25.82915547 43.64537413 -25.81167014 38.70749358 C-25.80858947 36.92083526 -25.81227263 35.13414986 -25.82339029 33.34752347 C-25.92810383 15.32684332 -25.92810383 15.32684332 -19.12890625 7.6640625 C-18.01322266 6.71660156 -18.01322266 6.71660156 -16.875 5.75 C-16.13378906 5.10289063 -15.39257812 4.45578125 -14.62890625 3.7890625 C-9.77338912 0.3009507 -5.93429433 -0.11092139 0 0 Z " fill="#534D54" transform="translate(98.3125,14.875)"/>
<path d="M0 0 C6.93 0 13.86 0 21 0 C21.21192877 5.7476103 21.41422151 11.49389818 21.59204102 17.24243164 C21.65539639 19.19705021 21.72435652 21.1514956 21.79907227 23.10571289 C21.9056093 25.91786169 21.99184901 28.73002101 22.07421875 31.54296875 C22.11157639 32.41398727 22.14893402 33.2850058 22.18742371 34.18241882 C22.20767105 35.002892 22.2279184 35.82336517 22.2487793 36.66870117 C22.27320602 37.38595871 22.29763275 38.10321625 22.32279968 38.84220886 C22 41 22 41 20.50363445 43.1371212 C18.58828147 46.78390081 18.58272035 49.94630442 18.61904907 53.96385193 C18.6143691 54.76018337 18.60968913 55.55651481 18.60486734 56.3769775 C18.59291187 59.04242255 18.60237668 61.70735397 18.61181641 64.37280273 C18.60775092 66.28496602 18.60240917 68.19712696 18.59588623 70.10928345 C18.58220324 75.30143193 18.58751562 80.49340168 18.59702349 85.68555331 C18.60461606 91.11866664 18.59757549 96.55176461 18.59286499 101.98487854 C18.58740581 111.11014555 18.59460286 120.23533975 18.60888672 129.3605957 C18.62520863 139.90965948 18.61992868 150.45854928 18.6034075 161.00760883 C18.58979147 170.06421918 18.58787371 179.12077717 18.59572351 188.17739445 C18.60039999 193.58670564 18.60102561 198.99593508 18.59111404 204.40524101 C18.58244517 209.49175657 18.58846499 214.57804798 18.60579681 219.66453934 C18.60976227 221.53097346 18.60862661 223.39742647 18.60200882 225.26385307 C18.59380545 227.81254451 18.60410018 230.36051863 18.61904907 232.90916443 C18.61235691 233.6470117 18.60566474 234.38485897 18.59876978 235.14506525 C18.65235353 239.85824092 19.71114833 242.91891427 22 247 C22.36076355 249.84750366 22.36076355 249.84750366 22.34057617 252.82177734 C22.34021362 253.95800537 22.33985107 255.0942334 22.33947754 256.26489258 C22.32412964 257.4433374 22.30878174 258.62178223 22.29296875 259.8359375 C22.28994751 260.93075439 22.28692627 262.02557129 22.28381348 263.15356445 C22.2681652 267.22747275 22.22628131 271.30124624 22.1875 275.375 C22.125625 284.49125 22.06375 293.6075 22 303 C43.78 303 65.56 303 88 303 C88 303.33 88 303.66 88 304 C59.29 304 30.58 304 1 304 C-0.24861536 301.50276927 -0.12420573 299.8326354 -0.12304783 297.03745842 C-0.12503888 295.98149086 -0.12702993 294.9255233 -0.12908131 293.83755672 C-0.12616847 292.66831602 -0.12325563 291.49907531 -0.12025452 290.29440308 C-0.12110894 289.05946141 -0.12196337 287.82451975 -0.12284368 286.55215561 C-0.12421049 283.11337797 -0.12106821 279.67465671 -0.11606562 276.23588586 C-0.11176042 272.53172825 -0.1132076 268.82757249 -0.1139679 265.12341309 C-0.11449309 258.70206156 -0.11134679 252.28072016 -0.10573006 245.85937119 C-0.0976144 236.57509746 -0.09499977 227.29082865 -0.09374207 218.00655176 C-0.09155165 202.94463198 -0.08489185 187.88271762 -0.07543945 172.82080078 C-0.06626507 158.18668647 -0.05918436 143.55257363 -0.05493164 128.91845703 C-0.05466892 128.01690981 -0.05440619 127.1153626 -0.05413551 126.18649577 C-0.0528305 121.66384753 -0.05156679 117.14119927 -0.05032361 112.61855102 C-0.03995132 75.07903016 -0.02225912 37.53951559 0 0 Z " fill="#B0DAFA" transform="translate(100,112)"/>
<path d="M0 0 C1.79709412 -0.00218285 1.79709412 -0.00218285 3.63049316 -0.00440979 C6.15879757 -0.00275277 8.68711227 0.00878625 11.21533203 0.02954102 C15.08018951 0.05849217 18.94367446 0.05014493 22.80859375 0.03710938 C25.26823582 0.04334719 27.72787356 0.05173846 30.1875 0.0625 C31.34076782 0.05956436 32.49403564 0.05662872 33.68225098 0.05360413 C43.77128301 0.17195096 43.77128301 0.17195096 48.59375 3.49609375 C52.40658496 7.72112708 53.71362004 10.12736948 53.77075195 15.75268555 C53.79000481 17.40031136 53.79000481 17.40031136 53.80964661 19.08122253 C53.81703354 20.27387222 53.82442047 21.46652191 53.83203125 22.6953125 C53.840103 23.91885941 53.84817474 25.14240631 53.85649109 26.4030304 C53.87034341 28.99808327 53.8810604 31.59315446 53.88891602 34.18823242 C53.90610395 38.14993066 53.94997893 42.11078929 53.99414062 46.07226562 C54.00426946 48.59244177 54.01278496 51.11262503 54.01953125 53.6328125 C54.03703934 54.81534103 54.05454742 55.99786957 54.07258606 57.2162323 C54.05519678 63.83879542 53.86026381 68.28252189 49.59375 73.49609375 C43.61228947 78.30698152 37.84342679 78.09555751 30.37890625 78.0625 C29.20919785 78.06869858 28.03948944 78.07489716 26.83433533 78.08128357 C24.36751129 78.08836851 21.9006393 78.08523105 19.43383789 78.07250977 C15.67178824 78.05865099 11.91223028 78.09273179 8.15039062 78.13085938 C5.74739523 78.13181072 3.34439674 78.12995095 0.94140625 78.125 C-0.17652817 78.13825821 -1.29446259 78.15151642 -2.4462738 78.16517639 C-9.29456094 78.08404536 -14.27875821 77.27708274 -19.40625 72.49609375 C-23.62596566 67.09886803 -22.85620507 60.42056212 -22.83984375 53.87109375 C-22.8450856 52.65083496 -22.85032745 51.43057617 -22.85572815 50.17333984 C-22.86214059 47.5979895 -22.86082149 45.02260984 -22.85229492 42.44726562 C-22.84377983 38.50988619 -22.87256877 34.57395517 -22.90429688 30.63671875 C-22.90590889 28.13151085 -22.90533136 25.62630039 -22.90234375 23.12109375 C-22.91357773 21.94595215 -22.92481171 20.77081055 -22.93638611 19.56005859 C-22.88416255 13.42890664 -22.84184199 9.15298024 -18.40625 4.49609375 C-12.95317185 -0.66915914 -7.09133597 -0.06907668 0 0 Z " fill="#201E1B" transform="translate(370.40625,172.50390625)"/>
<path d="M0 0 C0.96333755 -0.00412399 1.92667511 -0.00824799 2.91920471 -0.01249695 C3.97440308 -0.00171112 5.02960144 0.00907471 6.11677551 0.02018738 C7.22912064 0.0197493 8.34146576 0.01931122 9.48751831 0.01885986 C13.17246415 0.02095364 16.85695776 0.04431308 20.54182434 0.0677948 C23.0934423 0.07338864 25.64506347 0.07765974 28.19668579 0.08065796 C34.23155768 0.09095081 40.26623477 0.11460656 46.30102855 0.14470643 C53.17156107 0.17823132 60.04210135 0.19473161 66.91269529 0.20979273 C81.04567228 0.24115572 95.17850503 0.29392813 109.31135559 0.36076355 C109.31135559 0.69076355 109.31135559 1.02076355 109.31135559 1.36076355 C61.29635559 1.85576355 61.29635559 1.85576355 12.31135559 2.36076355 C12.31135559 65.06076355 12.31135559 127.76076355 12.31135559 192.36076355 C89.53135559 192.36076355 166.75135559 192.36076355 246.31135559 192.36076355 C246.31135559 193.02076355 246.31135559 193.68076355 246.31135559 194.36076355 C214.38651608 194.42915742 182.46169736 194.48226985 150.53680174 194.51395954 C146.77032803 194.51771179 143.00385447 194.52159475 139.23738098 194.52555847 C138.48752361 194.5263454 137.73766623 194.52713233 136.9650859 194.52794311 C124.81325357 194.54100765 112.66146369 194.56466724 100.50965657 194.59222194 C88.04673797 194.62024703 75.58384164 194.63693366 63.12089282 194.64302903 C55.4265927 194.64715151 47.73241254 194.6601858 40.03814933 194.68451295 C34.14456832 194.702201 28.25104934 194.70413651 22.35744095 194.70008659 C19.93501991 194.70091498 17.51259451 194.70692255 15.09020042 194.71837997 C11.79364671 194.73321303 8.49761453 194.72975066 5.2010498 194.7215271 C4.23316031 194.73026562 3.26527081 194.73900415 2.26805133 194.74800748 C0.94759317 194.73904776 0.94759317 194.73904776 -0.3995409 194.72990704 C-1.16088016 194.7310462 -1.92221943 194.73218536 -2.70662957 194.73335904 C-5.26382782 194.25263583 -6.14553944 193.42923114 -7.68864441 191.36076355 C-7.98327697 188.78780206 -8.09349204 186.45653855 -8.06959534 183.88298035 C-8.07427531 183.11482593 -8.07895528 182.3466715 -8.08377707 181.55523968 C-8.09577271 178.97331319 -8.08625222 176.39191302 -8.076828 173.8099823 C-8.08089168 171.96221099 -8.08623241 170.11444211 -8.09275818 168.26667786 C-8.10646183 163.2419606 -8.10112056 158.21742764 -8.09162092 153.19270706 C-8.0840401 147.94102217 -8.09106554 142.68935334 -8.09577942 137.43766785 C-8.10124158 128.61740782 -8.09403329 119.79722309 -8.07975769 110.97697449 C-8.06343031 100.77098526 -8.06871849 90.56517581 -8.08523691 80.35919094 C-8.09883866 71.60584948 -8.10077785 62.85256222 -8.0929209 54.0992136 C-8.08823717 48.86714289 -8.08763872 43.63515675 -8.09753036 38.40309143 C-8.1061787 33.4848677 -8.10021725 28.56687637 -8.0828476 23.64867783 C-8.07887132 21.84065004 -8.0800362 20.03260279 -8.08663559 18.22458267 C-8.09479633 15.76230414 -8.08459645 13.30077701 -8.06959534 10.83854675 C-8.0762875 10.11783336 -8.08297967 9.39711996 -8.08987463 8.65456676 C-8.05651843 5.84476256 -7.98138049 3.82333376 -6.45787525 1.41594982 C-4.16627896 0.04921978 -2.66634642 -0.00879982 0 0 Z " fill="#F12D38" transform="translate(140.6886444091797,158.6392364501953)"/>
<path d="M0 0 C21.60916171 -0.04624625 43.21831155 -0.0819627 64.82751274 -0.10362434 C74.86044878 -0.11394838 84.89335356 -0.12803018 94.92626953 -0.15087891 C103.66829738 -0.17077835 112.41030259 -0.18370823 121.15235245 -0.18817699 C125.78360236 -0.19079023 130.41478749 -0.19695573 135.04601669 -0.21146011 C139.4010837 -0.22498966 143.75605899 -0.22923207 148.11114502 -0.22621536 C149.71319196 -0.22676761 151.31524183 -0.23077253 152.91727066 -0.23841095 C155.0974578 -0.24829999 157.27729448 -0.24599129 159.45748901 -0.24050903 C161.29093526 -0.24327441 161.29093526 -0.24327441 163.16142082 -0.24609566 C166 0 166 0 168 2 C168 7.28 168 12.56 168 18 C112.56 18 57.12 18 0 18 C0 12.06 0 6.12 0 0 Z " fill="#22A2F4" transform="translate(141,79)"/>
<path d="M0 0 C1.09503845 -0.01283524 2.1900769 -0.02567047 3.31829834 -0.03889465 C5.08708344 -0.04997505 5.08708344 -0.04997505 6.89160156 -0.0612793 C8.1099469 -0.06935104 9.32829224 -0.07742279 10.58355713 -0.08573914 C13.16246116 -0.09956817 15.7413834 -0.1102956 18.3203125 -0.11816406 C22.25328456 -0.13537142 26.18541481 -0.17926971 30.11816406 -0.22338867 C32.62597039 -0.23351647 35.13378386 -0.2420323 37.64160156 -0.2487793 C38.8126947 -0.26628738 39.98378784 -0.28379547 41.19036865 -0.30183411 C48.52311333 -0.28246653 54.56548906 0.38826523 60.04779053 5.6245575 C64.71366537 10.95287847 65.78342362 14.52617293 65.72753906 21.56762695 C65.72470917 22.2722406 65.72187927 22.97685425 65.71896362 23.70281982 C65.70780458 25.94438955 65.68270849 28.18555381 65.65722656 30.42700195 C65.64719121 31.95043367 65.63806633 33.47387167 65.62988281 34.99731445 C65.6095841 38.72415732 65.57042914 42.45012792 65.53222656 46.17700195 C60.58222656 46.17700195 55.63222656 46.17700195 50.53222656 46.17700195 C50.50644531 44.4909082 50.48066406 42.80481445 50.45410156 41.06762695 C50.39782442 38.85405926 50.340477 36.6405186 50.28222656 34.42700195 C50.26804687 33.31583008 50.25386719 32.2046582 50.23925781 31.05981445 C50.20703125 29.98989258 50.17480469 28.9199707 50.14160156 27.81762695 C50.11018066 26.34084473 50.11018066 26.34084473 50.078125 24.83422852 C49.38775681 21.473778 48.21261519 20.26174866 45.53222656 18.17700195 C42.41623375 17.73186012 40.50429946 17.49001296 37.88061523 19.34423828 C36.00078933 21.89934476 36.10051379 23.78648509 36.02050781 26.9387207 C35.97083862 28.45018677 35.97083862 28.45018677 35.92016602 29.9921875 C35.895271 31.27005127 35.87037598 32.54791504 35.84472656 33.86450195 C35.74160156 37.92762695 35.63847656 41.99075195 35.53222656 46.17700195 C26.95222656 46.17700195 18.37222656 46.17700195 9.53222656 46.17700195 C9.21972656 33.86450195 9.21972656 33.86450195 9.14428711 29.9921875 C9.11117432 28.98454346 9.07806152 27.97689941 9.04394531 26.9387207 C9.01776123 25.90706787 8.99157715 24.87541504 8.96459961 23.8125 C8.73064959 21.16800406 8.73064959 21.16800406 7.21899414 19.34423828 C4.34691045 17.356768 1.89029639 17.75724323 -1.46777344 18.17700195 C-4.5061624 21.19384206 -4.86806821 23.62808535 -4.97949219 27.81762695 C-5.01494141 28.88754883 -5.05039063 29.9574707 -5.08691406 31.05981445 C-5.12075195 32.72657227 -5.12075195 32.72657227 -5.15527344 34.42700195 C-5.18943359 35.55364258 -5.22359375 36.6802832 -5.25878906 37.84106445 C-5.34119618 40.6193615 -5.40616316 43.39816595 -5.46777344 46.17700195 C-10.41777344 46.17700195 -15.36777344 46.17700195 -20.46777344 46.17700195 C-20.56014243 41.90750167 -20.63960111 37.64153358 -20.6875 33.37182617 C-20.70748639 31.92281278 -20.73468541 30.4738787 -20.76953125 29.02514648 C-20.98657218 19.76260557 -21.08390276 12.51187071 -14.68652344 5.1184082 C-14.11933594 4.66336914 -13.55214844 4.20833008 -12.96777344 3.73950195 C-12.40058594 3.26641602 -11.83339844 2.79333008 -11.24902344 2.3059082 C-7.71091933 0.06355713 -4.10595594 0.04202429 0 0 Z " fill="#22A5F9" transform="translate(196.4677734375,261.822998046875)"/>
<path d="M0 0 C5.28915004 3.00860559 9.47125154 7.7870287 11.75 13.4375 C12.68269351 20.30997847 12.42092086 26.07602278 8.2421875 31.75390625 C4.01551062 36.52274849 -0.40401687 39.8913589 -6.86328125 40.80859375 C-13.69419237 40.976648 -18.0459263 39.95558217 -23.25 35.4375 C-28.05257749 30.75743724 -30.29661476 26.35312206 -30.6875 19.6875 C-30.54325759 13.9856825 -28.7936135 9.87973319 -25.25 5.4375 C-18.03732765 -1.24193976 -9.44155282 -4.25688509 0 0 Z " fill="#1E1E1C" transform="translate(213.25,442.5625)"/>
<path d="M0 0 C4.54184572 3.29283815 7.95912299 6.79534454 10.5 11.8125 C11.44853265 18.48640987 11.33961131 25.25464768 7.84375 31.16015625 C4.14740901 35.70536624 -0.47909752 38.48195804 -6.3203125 39.12109375 C-13.27512661 39.39238083 -18.12786411 39.03369131 -23.6875 34.62890625 C-28.58263557 29.72322082 -29.74450546 25.18913189 -30.0625 18.3125 C-29.80561781 11.15294474 -27.94202233 7.12463469 -22.84375 2.21875 C-16.24794877 -2.81194585 -7.60790331 -2.58125291 0 0 Z " fill="#FCBB84" transform="translate(228.5,207.1875)"/>
<path d="M0 0 C1.30162582 -0.01583633 2.60325165 -0.03167267 3.94432068 -0.04798889 C5.35749674 -0.04414706 6.77066998 -0.03910781 8.18383789 -0.03295898 C9.64205827 -0.03819756 11.10027526 -0.0444749 12.55848694 -0.05174255 C15.61076837 -0.06213616 18.66258331 -0.05760132 21.71484375 -0.04296875 C25.61686602 -0.02578908 29.51741459 -0.04926901 33.41927242 -0.08445835 C36.42975022 -0.10647305 39.43987764 -0.10498114 42.45041084 -0.09669304 C43.88846006 -0.09587559 45.32653554 -0.10269962 46.7645092 -0.11746407 C59.38533525 -0.22718354 59.38533525 -0.22718354 63.39306641 2.84619141 C65.46899414 5.53344727 65.46899414 5.53344727 65.53149414 9.15844727 C64.11806474 13.64816419 64.11806474 13.64816419 61.46899414 15.53344727 C58.51564026 15.92112732 58.51564026 15.92112732 54.85791016 15.9375 C53.85739624 15.94779488 53.85739624 15.94779488 52.83666992 15.95829773 C50.6318635 15.97659843 48.42776647 15.97272379 46.22290039 15.96704102 C44.6897712 15.97160149 43.15664406 15.97690666 41.6235199 15.98292542 C38.4097361 15.99186305 35.19620071 15.98942639 31.98242188 15.97949219 C27.86513492 15.96800502 23.74870593 15.98820583 19.63153172 16.01740932 C16.46504779 16.03576209 13.29876978 16.03548073 10.13224602 16.0297718 C8.61439753 16.02961846 7.09653519 16.03567411 5.57873726 16.04806328 C3.45510302 16.06295418 1.33305741 16.05231288 -0.79052734 16.03515625 C-1.99837387 16.03499008 -3.2062204 16.03482391 -4.45066833 16.03465271 C-8.14710779 15.43320058 -9.32901438 14.51795174 -11.53100586 11.53344727 C-12.09350586 8.03344727 -12.09350586 8.03344727 -11.53100586 4.53344727 C-7.83206034 0.73286851 -5.22448188 0.02832577 0 0 Z " fill="#1E1E1C" transform="translate(177.531005859375,30.466552734375)"/>
<path d="M0 0 C1.75570312 0.01353516 1.75570312 0.01353516 3.546875 0.02734375 C4.43890625 0.03894531 5.3309375 0.05054688 6.25 0.0625 C5.82847656 0.87074219 5.40695313 1.67898438 4.97265625 2.51171875 C4.42480469 3.58035156 3.87695312 4.64898437 3.3125 5.75 C2.49458984 7.33361328 2.49458984 7.33361328 1.66015625 8.94921875 C0.15324731 11.89510956 0.15324731 11.89510956 -0.12890625 14.64453125 C-0.75 17.0625 -0.75 17.0625 -3.26171875 19.10546875 C-7.14691833 23.72257406 -6.53171853 28.52310059 -6.5625 34.375 C-6.58763672 35.49712891 -6.61277344 36.61925781 -6.63867188 37.77539062 C-6.6974377 40.53738457 -6.72660684 43.29998 -6.75 46.0625 C-11.7 46.0625 -16.65 46.0625 -21.75 46.0625 C-21.842369 41.79299972 -21.92182767 37.52703163 -21.96972656 33.25732422 C-21.98971295 31.80831083 -22.01691197 30.35937675 -22.05175781 28.91064453 C-22.26879874 19.64810361 -22.36612933 12.39736876 -15.96875 5.00390625 C-15.4015625 4.54886719 -14.834375 4.09382813 -14.25 3.625 C-13.6828125 3.15191406 -13.115625 2.67882812 -12.53125 2.19140625 C-8.56055644 -0.32510787 -4.60279171 -0.04602792 0 0 Z " fill="#0190F5" transform="translate(197.75,261.9375)"/>
<path d="M0 0 C15.18 0 30.36 0 46 0 C46 5.28 46 10.56 46 16 C30.82 16 15.64 16 0 16 C0 10.72 0 5.44 0 0 Z " fill="#F2B90C" transform="translate(363,219)"/>
<path d="M0 0 C5.3439096 1.67951445 8.40698572 4.76594142 11.62109375 9.2734375 C14.39121505 14.75090114 13.90986935 21.60423762 12.34375 27.44921875 C10.06949893 32.59569207 6.72804819 35.09043188 2 38 C-1.40844088 36.62090338 -2.66737535 35.39436506 -4.1875 32.0625 C-4.51105469 31.37285156 -4.83460938 30.68320313 -5.16796875 29.97265625 C-7.78081096 23.77788952 -8.13950475 16.82467435 -6.2109375 10.3515625 C-4.57078915 6.58297735 -2.71236955 3.11922498 0 0 Z " fill="#FBCFA2" transform="translate(226,207)"/>
<path d="M0 0 C1.49249268 0.01571045 1.49249268 0.01571045 3.01513672 0.03173828 C4.6296875 0.04140625 4.6296875 0.04140625 6.27685547 0.05126953 C7.40478516 0.06802734 8.53271484 0.08478516 9.69482422 0.10205078 C11.39832031 0.11558594 11.39832031 0.11558594 13.13623047 0.12939453 C15.94751759 0.15301879 18.75869683 0.18889068 21.56982422 0.22705078 C21.56982422 6.16705078 21.56982422 12.10705078 21.56982422 18.22705078 C12.98982422 18.22705078 4.40982422 18.22705078 -4.43017578 18.22705078 C-4.47142578 15.62830078 -4.51267578 13.02955078 -4.55517578 10.35205078 C-4.57338379 9.53494629 -4.5915918 8.7178418 -4.61035156 7.87597656 C-4.62494795 5.99210029 -4.52961061 4.10835766 -4.43017578 2.22705078 C-2.43017578 0.22705078 -2.43017578 0.22705078 0 0 Z " fill="#F44654" transform="translate(104.43017578125,78.77294921875)"/>
<path d="M0 0 C7.59 0 15.18 0 23 0 C23 4.95 23 9.9 23 15 C15.41 15 7.82 15 0 15 C0 10.05 0 5.1 0 0 Z " fill="#FFD201" transform="translate(386,219)"/>
<path d="M0 0 C5.28 0 10.56 0 16 0 C16 5.28 16 10.56 16 16 C10.72 16 5.44 16 0 16 C0 10.72 0 5.44 0 0 Z " fill="#F3DB57" transform="translate(393,188)"/>
<path d="M0 0 C4.95 0 9.9 0 15 0 C15 5.28 15 10.56 15 16 C10.05 16 5.1 16 0 16 C0 10.72 0 5.44 0 0 Z " fill="#FBD001" transform="translate(363,188)"/>
<path d="M0 0 C2.9375 0.75 2.9375 0.75 4.9375 2.75 C5.26765665 5.85347254 5.44281294 7.90781176 3.8125 10.625 C1.02643958 12.29663625 -0.88238862 12.21376624 -4.0625 11.75 C-6 10.125 -6 10.125 -7.0625 7.75 C-6.9375 4.625 -6.9375 4.625 -6.0625 1.75 C-3.0625 -0.25 -3.0625 -0.25 0 0 Z " fill="#514B51" transform="translate(205.0625,456.25)"/>
<path d="M0 0 C0.99 0 1.98 0 3 0 C3 5.28 3 10.56 3 16 C2.01 16 1.02 16 0 16 C0 10.72 0 5.44 0 0 Z " fill="#FF656F" transform="translate(122,80)"/>
</svg>
