<svg xmlns="http://www.w3.org/2000/svg" viewBox="0 0 400 400">
  <rect x="0" y="0" width="400" height="400" fill="#010066" rx="2em" ry="2em"/> 
  <g transform="translate(-50%, -50%)"> 
    <path d="M100 160 L200 100 L300 160 L300 300 L200 360 L100 300 Z" fill="#1a1b2e" stroke="#4a5568" stroke-width="2"/>
    
    <text x="120" y="180" fill="#00e08a" font-family="monospace" font-size="16">
      <tspan x="120">10110</tspan>
      <animate attributeName="y" values="180;340" dur="4s" repeatCount="indefinite"/>
    </text>
    <text x="120" y="160" fill="#00e08a" font-family="monospace" font-size="16">
      <tspan x="120">01001</tspan>
      <animate attributeName="y" values="160;340" dur="4s" begin="1s" repeatCount="indefinite"/>
    </text>
    
    <text x="170" y="150" fill="#00e08a" font-family="monospace" font-size="16">
      <tspan x="170">11010</tspan>
      <animate attributeName="y" values="150;340" dur="3.5s" repeatCount="indefinite"/>
    </text>
    <text x="170" y="130" fill="#00e08a" font-family="monospace" font-size="16">
      <tspan x="170">00101</tspan>
      <animate attributeName="y" values="130;340" dur="3.5s" begin="1.2s" repeatCount="indefinite"/>
    </text>
    
    <text x="220" y="170" fill="#00e08a" font-family="monospace" font-size="16">
      <tspan x="220">11100</tspan>
      <animate attributeName="y" values="170;340" dur="4.2s" repeatCount="indefinite"/>
    </text>
    <text x="220" y="140" fill="#00e08a" font-family="monospace" font-size="16">
      <tspan x="220">10011</tspan>
      <animate attributeName="y" values="140;340" dur="4.2s" begin="0.7s" repeatCount="indefinite"/>
    </text>
    
    <path d="M120 170 L200 120 L280 170 L280 290 L200 340 L120 290 Z" fill="#202734" stroke="#00e08a" stroke-width="1"/>
    <path d="M140 180 L180 160 M220 160 L260 180" stroke="#00e08a" stroke-width="1.5" fill="none"/>
    <path d="M140 280 L180 300 M220 300 L260 280" stroke="#00e08a" stroke-width="1.5" fill="none"/>
    <path d="M200 120 L200 150" stroke="#00e08a" stroke-width="1.5" fill="none"/>
    <path d="M200 310 L200 340" stroke="#00e08a" stroke-width="1.5" fill="none"/>
    
    <rect x="150" y="180" width="100" height="80" rx="5" fill="#151826"/>
    <path d="M160 190 H240" stroke="#00e08a" stroke-width="0.5" opacity="0.5"/>
    <path d="M160 200 H240" stroke="#00e08a" stroke-width="0.5" opacity="0.5"/>
    <path d="M160 210 H240" stroke="#00e08a" stroke-width="0.5" opacity="0.5"/>
    
    <path d="M160 220 Q200 180 240 220" fill="none" stroke="#00e08a" stroke-width="2">
      <animate attributeName="stroke-opacity" values="1;0.3;1" dur="2s" repeatCount="indefinite"/>
      <animate attributeName="stroke-width" values="2;3;2" dur="2s" repeatCount="indefinite"/>
    </path>
    <path d="M170 230 Q200 200 230 230" fill="none" stroke="#00e08a" stroke-width="2">
      <animate attributeName="stroke-opacity" values="1;0.3;1" dur="2s" begin="0.3s" repeatCount="indefinite"/>
      <animate attributeName="stroke-width" values="2;3;2" dur="2s" begin="0.3s" repeatCount="indefinite"/>
    </path>
    <path d="M180 240 Q200 220 220 240" fill="none" stroke="#00e08a" stroke-width="2">
      <animate attributeName="stroke-opacity" values="1;0.3;1" dur="2s" begin="0.6s" repeatCount="indefinite"/>
      <animate attributeName="stroke-width" values="2;3;2" dur="2s" begin="0.6s" repeatCount="indefinite"/>
    </path>
    
    <circle cx="200" cy="270" r="15" fill="none" stroke="#00e08a" stroke-width="2"/>
    <circle cx="200" cy="270" r="10" fill="none" stroke="#00e08a" stroke-width="1"/>
    <circle cx="200" cy="270" r="5" fill="#00e08a"/>
    
    <path d="M140 170 L130 170 L130 180" stroke="#00e08a" stroke-width="2" fill="none"/>
    <path d="M260 170 L270 170 L270 180" stroke="#00e08a" stroke-width="2" fill="none"/>
    <path d="M140 290 L130 290 L130 280" stroke="#00e08a" stroke-width="2" fill="none"/>
    <path d="M260 290 L270 290 L270 280" stroke="#00e08a" stroke-width="2" fill="none"/>
    
    <circle cx="200" cy="270" r="3" fill="#00e08a">
      <animate attributeName="opacity" values="1;0;1" dur="2s" repeatCount="indefinite"/>
    </circle>
  </g>
</svg>
